<mxfile host="app.diagrams.net" modified="2021-07-28T18:00:57.411Z" agent="5.0 (Windows NT 10.0; Win64; x64) AppleWebKit/537.36 (KHTML, like Gecko) Chrome/92.0.4515.107 Safari/537.36 Edg/92.0.902.55" etag="uiwQwtWJTWPTw1vmKmHH" version="14.9.2" type="github" pages="4">
  <diagram id="iIE_L7M6PpKSxn6nWzbU" name="Player State Machine">
    <mxGraphModel dx="2031" dy="1103" grid="1" gridSize="10" guides="1" tooltips="1" connect="1" arrows="1" fold="1" page="1" pageScale="1" pageWidth="1654" pageHeight="1169" math="0" shadow="0">
      <root>
        <mxCell id="0" />
        <mxCell id="1" parent="0" />
        <mxCell id="bRhuMi0I_HP2yc-rfD6Y-30" value="" style="group;fontSize=15;" parent="1" vertex="1" connectable="0">
          <mxGeometry x="737" y="110" width="501" height="290" as="geometry" />
        </mxCell>
        <mxCell id="bRhuMi0I_HP2yc-rfD6Y-1" value="&lt;div style=&quot;font-size: 15px;&quot;&gt;&lt;b style=&quot;font-size: 15px;&quot;&gt;Ability State&lt;/b&gt;&lt;/div&gt;" style="rounded=0;whiteSpace=wrap;html=1;align=left;fillColor=#fff2cc;strokeColor=#d6b656;verticalAlign=top;fontSize=15;" parent="bRhuMi0I_HP2yc-rfD6Y-30" vertex="1">
          <mxGeometry y="90" width="501" height="200" as="geometry" />
        </mxCell>
        <mxCell id="bRhuMi0I_HP2yc-rfD6Y-2" value="Primary Attack State" style="rounded=1;whiteSpace=wrap;html=1;fillColor=#dae8fc;strokeColor=#6c8ebf;arcSize=23;" parent="bRhuMi0I_HP2yc-rfD6Y-30" vertex="1">
          <mxGeometry x="11" y="188" width="80" height="30" as="geometry" />
        </mxCell>
        <mxCell id="bRhuMi0I_HP2yc-rfD6Y-3" value="Secondary Attack Stater" style="rounded=1;whiteSpace=wrap;html=1;fillColor=#dae8fc;strokeColor=#6c8ebf;arcSize=23;" parent="bRhuMi0I_HP2yc-rfD6Y-30" vertex="1">
          <mxGeometry x="92" y="250" width="80" height="28" as="geometry" />
        </mxCell>
        <mxCell id="bRhuMi0I_HP2yc-rfD6Y-4" value="Dash State" style="rounded=1;whiteSpace=wrap;html=1;fillColor=#dae8fc;strokeColor=#6c8ebf;arcSize=23;" parent="bRhuMi0I_HP2yc-rfD6Y-30" vertex="1">
          <mxGeometry x="171" y="193" width="80" height="30" as="geometry" />
        </mxCell>
        <mxCell id="bRhuMi0I_HP2yc-rfD6Y-5" value="Jump State" style="rounded=1;whiteSpace=wrap;html=1;fillColor=#dae8fc;strokeColor=#6c8ebf;arcSize=23;" parent="bRhuMi0I_HP2yc-rfD6Y-30" vertex="1">
          <mxGeometry x="251" y="248" width="80" height="30" as="geometry" />
        </mxCell>
        <mxCell id="bRhuMi0I_HP2yc-rfD6Y-6" value="Wall Jump State" style="rounded=1;whiteSpace=wrap;html=1;fillColor=#dae8fc;strokeColor=#6c8ebf;arcSize=23;" parent="bRhuMi0I_HP2yc-rfD6Y-30" vertex="1">
          <mxGeometry x="331" y="188" width="90" height="30" as="geometry" />
        </mxCell>
        <mxCell id="bRhuMi0I_HP2yc-rfD6Y-7" value="Dodge Roll" style="rounded=1;whiteSpace=wrap;html=1;fillColor=#d5e8d4;strokeColor=#82b366;arcSize=23;" parent="bRhuMi0I_HP2yc-rfD6Y-30" vertex="1">
          <mxGeometry x="421" y="248" width="70" height="30" as="geometry" />
        </mxCell>
        <mxCell id="bRhuMi0I_HP2yc-rfD6Y-8" value="Input Handler" style="shape=offPageConnector;whiteSpace=wrap;html=1;rotation=90;horizontal=0;verticalAlign=middle;direction=south;fillColor=#e1d5e7;strokeColor=#9673a6;" parent="bRhuMi0I_HP2yc-rfD6Y-30" vertex="1">
          <mxGeometry x="227.88" y="16.88" width="45.25" height="60" as="geometry" />
        </mxCell>
        <mxCell id="bRhuMi0I_HP2yc-rfD6Y-9" value="" style="endArrow=classic;html=1;exitX=0.5;exitY=0;exitDx=0;exitDy=0;entryX=0.5;entryY=0;entryDx=0;entryDy=0;" parent="bRhuMi0I_HP2yc-rfD6Y-30" source="bRhuMi0I_HP2yc-rfD6Y-8" target="bRhuMi0I_HP2yc-rfD6Y-1" edge="1">
          <mxGeometry width="50" height="50" relative="1" as="geometry">
            <mxPoint x="210" y="100" as="sourcePoint" />
            <mxPoint x="260" y="50" as="targetPoint" />
          </mxGeometry>
        </mxCell>
        <mxCell id="bRhuMi0I_HP2yc-rfD6Y-16" value="" style="endArrow=classic;html=1;exitX=0.5;exitY=0;exitDx=0;exitDy=0;entryX=0.478;entryY=0.047;entryDx=0;entryDy=0;edgeStyle=orthogonalEdgeStyle;elbow=vertical;entryPerimeter=0;" parent="bRhuMi0I_HP2yc-rfD6Y-30" source="bRhuMi0I_HP2yc-rfD6Y-1" target="bRhuMi0I_HP2yc-rfD6Y-3" edge="1">
          <mxGeometry width="50" height="50" relative="1" as="geometry">
            <mxPoint x="260.5" y="100" as="sourcePoint" />
            <mxPoint x="61" y="198" as="targetPoint" />
            <Array as="points">
              <mxPoint x="251" y="130" />
              <mxPoint x="130" y="130" />
              <mxPoint x="130" y="251" />
            </Array>
          </mxGeometry>
        </mxCell>
        <mxCell id="bRhuMi0I_HP2yc-rfD6Y-17" value="" style="endArrow=classic;html=1;exitX=0.5;exitY=0;exitDx=0;exitDy=0;entryX=0.5;entryY=0;entryDx=0;entryDy=0;edgeStyle=orthogonalEdgeStyle;elbow=vertical;startArrow=none;" parent="bRhuMi0I_HP2yc-rfD6Y-30" source="bRhuMi0I_HP2yc-rfD6Y-1" target="bRhuMi0I_HP2yc-rfD6Y-2" edge="1">
          <mxGeometry width="50" height="50" relative="1" as="geometry">
            <mxPoint x="260.5" y="100" as="sourcePoint" />
            <mxPoint x="141" y="258" as="targetPoint" />
            <Array as="points">
              <mxPoint x="250" y="130" />
              <mxPoint x="51" y="130" />
            </Array>
          </mxGeometry>
        </mxCell>
        <mxCell id="bRhuMi0I_HP2yc-rfD6Y-18" value="" style="endArrow=classic;html=1;exitX=0.5;exitY=0;exitDx=0;exitDy=0;entryX=0.5;entryY=0;entryDx=0;entryDy=0;edgeStyle=orthogonalEdgeStyle;elbow=vertical;" parent="bRhuMi0I_HP2yc-rfD6Y-30" source="bRhuMi0I_HP2yc-rfD6Y-1" target="bRhuMi0I_HP2yc-rfD6Y-4" edge="1">
          <mxGeometry width="50" height="50" relative="1" as="geometry">
            <mxPoint x="270.5" y="110" as="sourcePoint" />
            <mxPoint x="151" y="268" as="targetPoint" />
            <Array as="points">
              <mxPoint x="250" y="130" />
              <mxPoint x="211" y="130" />
            </Array>
          </mxGeometry>
        </mxCell>
        <mxCell id="bRhuMi0I_HP2yc-rfD6Y-19" value="" style="endArrow=classic;html=1;exitX=0.5;exitY=0;exitDx=0;exitDy=0;entryX=0.5;entryY=0;entryDx=0;entryDy=0;edgeStyle=orthogonalEdgeStyle;elbow=vertical;" parent="bRhuMi0I_HP2yc-rfD6Y-30" source="bRhuMi0I_HP2yc-rfD6Y-1" target="bRhuMi0I_HP2yc-rfD6Y-5" edge="1">
          <mxGeometry width="50" height="50" relative="1" as="geometry">
            <mxPoint x="280.5" y="120" as="sourcePoint" />
            <mxPoint x="161" y="278" as="targetPoint" />
            <Array as="points">
              <mxPoint x="250" y="130" />
              <mxPoint x="291" y="130" />
            </Array>
          </mxGeometry>
        </mxCell>
        <mxCell id="bRhuMi0I_HP2yc-rfD6Y-20" value="" style="endArrow=classic;html=1;entryX=0.5;entryY=0;entryDx=0;entryDy=0;edgeStyle=orthogonalEdgeStyle;elbow=vertical;" parent="bRhuMi0I_HP2yc-rfD6Y-30" target="bRhuMi0I_HP2yc-rfD6Y-6" edge="1">
          <mxGeometry width="50" height="50" relative="1" as="geometry">
            <mxPoint x="250" y="90" as="sourcePoint" />
            <mxPoint x="301" y="258" as="targetPoint" />
            <Array as="points">
              <mxPoint x="250" y="130" />
              <mxPoint x="376" y="130" />
            </Array>
          </mxGeometry>
        </mxCell>
        <mxCell id="bRhuMi0I_HP2yc-rfD6Y-21" value="" style="endArrow=classic;html=1;entryX=0.5;entryY=0;entryDx=0;entryDy=0;edgeStyle=orthogonalEdgeStyle;elbow=vertical;exitX=0.5;exitY=0;exitDx=0;exitDy=0;" parent="bRhuMi0I_HP2yc-rfD6Y-30" source="bRhuMi0I_HP2yc-rfD6Y-1" target="bRhuMi0I_HP2yc-rfD6Y-7" edge="1">
          <mxGeometry width="50" height="50" relative="1" as="geometry">
            <mxPoint x="260" y="100" as="sourcePoint" />
            <mxPoint x="386" y="198" as="targetPoint" />
            <Array as="points">
              <mxPoint x="250" y="130" />
              <mxPoint x="456" y="130" />
            </Array>
          </mxGeometry>
        </mxCell>
        <mxCell id="bRhuMi0I_HP2yc-rfD6Y-22" value="Prim Input" style="rounded=0;whiteSpace=wrap;html=1;verticalAlign=middle;fontSize=10;" parent="bRhuMi0I_HP2yc-rfD6Y-30" vertex="1">
          <mxGeometry x="23.629999999999995" y="140" width="54.75" height="20" as="geometry" />
        </mxCell>
        <mxCell id="bRhuMi0I_HP2yc-rfD6Y-25" value="Sec Input" style="rounded=0;whiteSpace=wrap;html=1;verticalAlign=middle;fontSize=10;" parent="bRhuMi0I_HP2yc-rfD6Y-30" vertex="1">
          <mxGeometry x="103.63" y="168" width="54.75" height="20" as="geometry" />
        </mxCell>
        <mxCell id="bRhuMi0I_HP2yc-rfD6Y-26" value="Dash Input" style="rounded=0;whiteSpace=wrap;html=1;verticalAlign=middle;fontSize=10;" parent="bRhuMi0I_HP2yc-rfD6Y-30" vertex="1">
          <mxGeometry x="183.63" y="148" width="54.75" height="20" as="geometry" />
        </mxCell>
        <mxCell id="bRhuMi0I_HP2yc-rfD6Y-27" value="JumpInput&lt;br&gt;Can Jump" style="rounded=0;whiteSpace=wrap;html=1;verticalAlign=middle;fontSize=10;align=center;" parent="bRhuMi0I_HP2yc-rfD6Y-30" vertex="1">
          <mxGeometry x="263.63" y="168" width="54.75" height="32" as="geometry" />
        </mxCell>
        <mxCell id="bRhuMi0I_HP2yc-rfD6Y-28" value="Jump Input&lt;br&gt;isTouchinWall" style="rounded=0;whiteSpace=wrap;html=1;verticalAlign=middle;fontSize=10;" parent="bRhuMi0I_HP2yc-rfD6Y-30" vertex="1">
          <mxGeometry x="345.31000000000006" y="144" width="61.38" height="28" as="geometry" />
        </mxCell>
        <mxCell id="bRhuMi0I_HP2yc-rfD6Y-29" value="Dodge Input" style="rounded=0;whiteSpace=wrap;html=1;verticalAlign=middle;fontSize=10;" parent="bRhuMi0I_HP2yc-rfD6Y-30" vertex="1">
          <mxGeometry x="426" y="168" width="60" height="20" as="geometry" />
        </mxCell>
        <mxCell id="bRhuMi0I_HP2yc-rfD6Y-170" value="" style="endArrow=classic;html=1;exitX=0.5;exitY=0;exitDx=0;exitDy=0;entryX=0.5;entryY=1;entryDx=0;entryDy=0;edgeStyle=orthogonalEdgeStyle;elbow=vertical;startArrow=none;" parent="1" source="bRhuMi0I_HP2yc-rfD6Y-171" target="bRhuMi0I_HP2yc-rfD6Y-8" edge="1">
          <mxGeometry width="50" height="50" relative="1" as="geometry">
            <mxPoint x="686.5" y="120" as="sourcePoint" />
            <mxPoint x="487" y="218" as="targetPoint" />
            <Array as="points">
              <mxPoint x="492" y="110" />
              <mxPoint x="988" y="110" />
            </Array>
          </mxGeometry>
        </mxCell>
        <mxCell id="bRhuMi0I_HP2yc-rfD6Y-171" value="Ability Input" style="rounded=0;whiteSpace=wrap;html=1;fontSize=10;align=center;verticalAlign=top;" parent="1" vertex="1">
          <mxGeometry x="462" y="350" width="60" height="20" as="geometry" />
        </mxCell>
        <mxCell id="bRhuMi0I_HP2yc-rfD6Y-172" value="" style="endArrow=none;html=1;exitX=0.5;exitY=0;exitDx=0;exitDy=0;entryX=0.5;entryY=1;entryDx=0;entryDy=0;edgeStyle=orthogonalEdgeStyle;elbow=vertical;startArrow=none;" parent="1" source="bRhuMi0I_HP2yc-rfD6Y-31" target="bRhuMi0I_HP2yc-rfD6Y-171" edge="1">
          <mxGeometry width="50" height="50" relative="1" as="geometry">
            <mxPoint x="492" y="453" as="sourcePoint" />
            <mxPoint x="987.5" y="110" as="targetPoint" />
            <Array as="points" />
          </mxGeometry>
        </mxCell>
        <mxCell id="bRhuMi0I_HP2yc-rfD6Y-194" value="inAir State" style="rounded=1;whiteSpace=wrap;html=1;fontSize=16;align=center;verticalAlign=middle;fillColor=#dae8fc;strokeColor=#6c8ebf;" parent="1" vertex="1">
          <mxGeometry x="927.5" y="553" width="120" height="60" as="geometry" />
        </mxCell>
        <mxCell id="bRhuMi0I_HP2yc-rfD6Y-196" value="" style="group" parent="1" vertex="1" connectable="0">
          <mxGeometry x="307" y="453" width="370" height="260" as="geometry" />
        </mxCell>
        <mxCell id="bRhuMi0I_HP2yc-rfD6Y-31" value="Grounded State" style="rounded=0;whiteSpace=wrap;html=1;fontSize=15;align=center;verticalAlign=top;fillColor=#fff2cc;strokeColor=#d6b656;fontStyle=1" parent="bRhuMi0I_HP2yc-rfD6Y-196" vertex="1">
          <mxGeometry width="370" height="260" as="geometry" />
        </mxCell>
        <mxCell id="bRhuMi0I_HP2yc-rfD6Y-54" value="Hard Land State" style="rounded=1;whiteSpace=wrap;html=1;fontSize=12;align=center;verticalAlign=middle;fillColor=#d5e8d4;strokeColor=#82b366;" parent="bRhuMi0I_HP2yc-rfD6Y-196" vertex="1">
          <mxGeometry x="20" y="23" width="80" height="30" as="geometry" />
        </mxCell>
        <mxCell id="bRhuMi0I_HP2yc-rfD6Y-55" value="Land State" style="rounded=1;whiteSpace=wrap;html=1;fontSize=12;align=center;verticalAlign=middle;fillColor=#d5e8d4;strokeColor=#82b366;" parent="bRhuMi0I_HP2yc-rfD6Y-196" vertex="1">
          <mxGeometry x="260" y="23" width="80" height="30" as="geometry" />
        </mxCell>
        <mxCell id="bRhuMi0I_HP2yc-rfD6Y-58" value="Crouch Move State" style="rounded=1;whiteSpace=wrap;html=1;fontSize=12;align=center;verticalAlign=middle;fillColor=#dae8fc;strokeColor=#6c8ebf;" parent="bRhuMi0I_HP2yc-rfD6Y-196" vertex="1">
          <mxGeometry x="20" y="200" width="80" height="47" as="geometry" />
        </mxCell>
        <mxCell id="bRhuMi0I_HP2yc-rfD6Y-59" value="Crouch Idle State" style="rounded=1;whiteSpace=wrap;html=1;fontSize=12;align=center;verticalAlign=middle;fillColor=#dae8fc;strokeColor=#6c8ebf;" parent="bRhuMi0I_HP2yc-rfD6Y-196" vertex="1">
          <mxGeometry x="260" y="200" width="80" height="47" as="geometry" />
        </mxCell>
        <mxCell id="bRhuMi0I_HP2yc-rfD6Y-60" value="Move State" style="rounded=1;whiteSpace=wrap;html=1;fontSize=12;align=center;verticalAlign=middle;fillColor=#dae8fc;strokeColor=#6c8ebf;" parent="bRhuMi0I_HP2yc-rfD6Y-196" vertex="1">
          <mxGeometry x="20" y="97" width="80" height="30" as="geometry" />
        </mxCell>
        <mxCell id="bRhuMi0I_HP2yc-rfD6Y-61" value="Idle State" style="rounded=1;whiteSpace=wrap;html=1;fontSize=12;align=center;verticalAlign=middle;fillColor=#dae8fc;strokeColor=#6c8ebf;" parent="bRhuMi0I_HP2yc-rfD6Y-196" vertex="1">
          <mxGeometry x="260" y="97" width="80" height="30" as="geometry" />
        </mxCell>
        <mxCell id="bRhuMi0I_HP2yc-rfD6Y-62" value="" style="endArrow=classic;html=1;fontSize=10;exitX=0.5;exitY=1;exitDx=0;exitDy=0;entryX=0.25;entryY=0;entryDx=0;entryDy=0;startArrow=none;" parent="bRhuMi0I_HP2yc-rfD6Y-196" source="bRhuMi0I_HP2yc-rfD6Y-80" target="bRhuMi0I_HP2yc-rfD6Y-60" edge="1">
          <mxGeometry width="50" height="50" as="geometry">
            <mxPoint x="30" y="110" as="sourcePoint" />
            <mxPoint x="80" y="60" as="targetPoint" />
          </mxGeometry>
        </mxCell>
        <mxCell id="bRhuMi0I_HP2yc-rfD6Y-63" value="" style="endArrow=classic;html=1;fontSize=10;entryX=0.25;entryY=0;entryDx=0;entryDy=0;exitX=0.5;exitY=1;exitDx=0;exitDy=0;startArrow=none;" parent="bRhuMi0I_HP2yc-rfD6Y-196" source="bRhuMi0I_HP2yc-rfD6Y-81" target="bRhuMi0I_HP2yc-rfD6Y-58" edge="1">
          <mxGeometry width="50" height="50" as="geometry">
            <mxPoint x="40" y="110" as="sourcePoint" />
            <mxPoint x="40" y="80" as="targetPoint" />
            <Array as="points">
              <mxPoint x="40" y="187" />
            </Array>
          </mxGeometry>
        </mxCell>
        <mxCell id="bRhuMi0I_HP2yc-rfD6Y-64" value="" style="endArrow=classic;html=1;fontSize=10;exitX=0.5;exitY=1;exitDx=0;exitDy=0;entryX=0.25;entryY=0;entryDx=0;entryDy=0;startArrow=none;" parent="bRhuMi0I_HP2yc-rfD6Y-196" source="bRhuMi0I_HP2yc-rfD6Y-84" target="bRhuMi0I_HP2yc-rfD6Y-59" edge="1">
          <mxGeometry width="50" height="50" as="geometry">
            <mxPoint x="320" y="110" as="sourcePoint" />
            <mxPoint x="320" y="200" as="targetPoint" />
            <Array as="points" />
          </mxGeometry>
        </mxCell>
        <mxCell id="bRhuMi0I_HP2yc-rfD6Y-65" value="" style="endArrow=classic;html=1;fontSize=10;entryX=0.75;entryY=1;entryDx=0;entryDy=0;exitX=0.5;exitY=0;exitDx=0;exitDy=0;startArrow=none;" parent="bRhuMi0I_HP2yc-rfD6Y-196" source="bRhuMi0I_HP2yc-rfD6Y-83" target="bRhuMi0I_HP2yc-rfD6Y-60" edge="1">
          <mxGeometry width="50" height="50" as="geometry">
            <mxPoint x="50" y="120" as="sourcePoint" />
            <mxPoint x="50" y="210" as="targetPoint" />
            <Array as="points" />
          </mxGeometry>
        </mxCell>
        <mxCell id="bRhuMi0I_HP2yc-rfD6Y-66" value="" style="endArrow=classic;html=1;fontSize=10;entryX=0.75;entryY=1;entryDx=0;entryDy=0;exitX=0.5;exitY=0;exitDx=0;exitDy=0;startArrow=none;" parent="bRhuMi0I_HP2yc-rfD6Y-196" source="bRhuMi0I_HP2yc-rfD6Y-179" target="bRhuMi0I_HP2yc-rfD6Y-61" edge="1">
          <mxGeometry width="50" height="50" as="geometry">
            <mxPoint x="60" y="130" as="sourcePoint" />
            <mxPoint x="60" y="220" as="targetPoint" />
            <Array as="points" />
          </mxGeometry>
        </mxCell>
        <mxCell id="bRhuMi0I_HP2yc-rfD6Y-67" value="" style="endArrow=classic;html=1;fontSize=10;exitX=0.75;exitY=1;exitDx=0;exitDy=0;entryX=0.75;entryY=0;entryDx=0;entryDy=0;" parent="bRhuMi0I_HP2yc-rfD6Y-196" source="bRhuMi0I_HP2yc-rfD6Y-55" target="bRhuMi0I_HP2yc-rfD6Y-61" edge="1">
          <mxGeometry width="50" height="50" as="geometry">
            <mxPoint x="50" y="63" as="sourcePoint" />
            <mxPoint x="50" y="90" as="targetPoint" />
          </mxGeometry>
        </mxCell>
        <mxCell id="bRhuMi0I_HP2yc-rfD6Y-68" value="" style="endArrow=classic;html=1;fontSize=10;exitX=1;exitY=0.75;exitDx=0;exitDy=0;entryX=0.25;entryY=0;entryDx=0;entryDy=0;startArrow=none;" parent="bRhuMi0I_HP2yc-rfD6Y-196" source="bRhuMi0I_HP2yc-rfD6Y-175" target="bRhuMi0I_HP2yc-rfD6Y-61" edge="1">
          <mxGeometry width="50" height="50" as="geometry">
            <mxPoint x="60" y="73" as="sourcePoint" />
            <mxPoint x="60" y="100" as="targetPoint" />
          </mxGeometry>
        </mxCell>
        <mxCell id="bRhuMi0I_HP2yc-rfD6Y-69" value="" style="endArrow=classic;html=1;fontSize=10;exitX=0.25;exitY=1;exitDx=0;exitDy=0;entryX=0.75;entryY=0;entryDx=0;entryDy=0;" parent="bRhuMi0I_HP2yc-rfD6Y-196" source="bRhuMi0I_HP2yc-rfD6Y-55" target="bRhuMi0I_HP2yc-rfD6Y-60" edge="1">
          <mxGeometry width="50" height="50" as="geometry">
            <mxPoint x="90" y="63" as="sourcePoint" />
            <mxPoint x="290" y="90" as="targetPoint" />
          </mxGeometry>
        </mxCell>
        <mxCell id="bRhuMi0I_HP2yc-rfD6Y-70" value="" style="endArrow=classic;html=1;fontSize=10;exitX=0;exitY=0.5;exitDx=0;exitDy=0;entryX=1;entryY=0.75;entryDx=0;entryDy=0;startArrow=none;" parent="bRhuMi0I_HP2yc-rfD6Y-196" source="bRhuMi0I_HP2yc-rfD6Y-174" target="bRhuMi0I_HP2yc-rfD6Y-60" edge="1">
          <mxGeometry width="50" height="50" as="geometry">
            <mxPoint x="290" y="63" as="sourcePoint" />
            <mxPoint x="90" y="90" as="targetPoint" />
          </mxGeometry>
        </mxCell>
        <mxCell id="bRhuMi0I_HP2yc-rfD6Y-71" value="" style="endArrow=classic;html=1;fontSize=10;exitX=1;exitY=0.5;exitDx=0;exitDy=0;entryX=0;entryY=0.25;entryDx=0;entryDy=0;startArrow=none;" parent="bRhuMi0I_HP2yc-rfD6Y-196" source="bRhuMi0I_HP2yc-rfD6Y-173" target="bRhuMi0I_HP2yc-rfD6Y-61" edge="1">
          <mxGeometry width="50" height="50" as="geometry">
            <mxPoint x="270" y="112.5" as="sourcePoint" />
            <mxPoint x="110" y="112.5" as="targetPoint" />
          </mxGeometry>
        </mxCell>
        <mxCell id="bRhuMi0I_HP2yc-rfD6Y-72" value="" style="endArrow=classic;html=1;fontSize=10;exitX=1;exitY=0.5;exitDx=0;exitDy=0;entryX=0;entryY=0.25;entryDx=0;entryDy=0;startArrow=none;" parent="bRhuMi0I_HP2yc-rfD6Y-196" source="bRhuMi0I_HP2yc-rfD6Y-89" target="bRhuMi0I_HP2yc-rfD6Y-59" edge="1">
          <mxGeometry width="50" height="50" as="geometry">
            <mxPoint x="110" y="97.5" as="sourcePoint" />
            <mxPoint x="270" y="97.5" as="targetPoint" />
          </mxGeometry>
        </mxCell>
        <mxCell id="bRhuMi0I_HP2yc-rfD6Y-73" value="" style="endArrow=classic;html=1;fontSize=10;exitX=0;exitY=0.5;exitDx=0;exitDy=0;entryX=1;entryY=0.75;entryDx=0;entryDy=0;startArrow=none;" parent="bRhuMi0I_HP2yc-rfD6Y-196" source="bRhuMi0I_HP2yc-rfD6Y-90" target="bRhuMi0I_HP2yc-rfD6Y-58" edge="1">
          <mxGeometry width="50" height="50" as="geometry">
            <mxPoint x="110" y="217.5" as="sourcePoint" />
            <mxPoint x="270" y="217.5" as="targetPoint" />
          </mxGeometry>
        </mxCell>
        <mxCell id="bRhuMi0I_HP2yc-rfD6Y-76" value="!xInput" style="rounded=0;whiteSpace=wrap;html=1;fontSize=10;align=center;verticalAlign=middle;" parent="bRhuMi0I_HP2yc-rfD6Y-196" vertex="1">
          <mxGeometry x="110" y="60" width="30" height="10" as="geometry" />
        </mxCell>
        <mxCell id="bRhuMi0I_HP2yc-rfD6Y-77" value="" style="endArrow=none;html=1;fontSize=10;exitX=0.75;exitY=1;exitDx=0;exitDy=0;entryX=0;entryY=0;entryDx=0;entryDy=0;" parent="bRhuMi0I_HP2yc-rfD6Y-196" source="bRhuMi0I_HP2yc-rfD6Y-54" target="bRhuMi0I_HP2yc-rfD6Y-175" edge="1">
          <mxGeometry width="50" height="50" as="geometry">
            <mxPoint x="80" y="53" as="sourcePoint" />
            <mxPoint x="280" y="97" as="targetPoint" />
          </mxGeometry>
        </mxCell>
        <mxCell id="bRhuMi0I_HP2yc-rfD6Y-78" value="xInput" style="rounded=0;whiteSpace=wrap;html=1;fontSize=10;align=center;verticalAlign=middle;" parent="bRhuMi0I_HP2yc-rfD6Y-196" vertex="1">
          <mxGeometry x="210" y="60" width="30" height="10" as="geometry" />
        </mxCell>
        <mxCell id="bRhuMi0I_HP2yc-rfD6Y-79" value="" style="rounded=0;whiteSpace=wrap;html=1;fontSize=10;align=center;verticalAlign=middle;" parent="bRhuMi0I_HP2yc-rfD6Y-196" vertex="1">
          <mxGeometry x="300" y="60" width="30" height="10" as="geometry" />
        </mxCell>
        <mxCell id="bRhuMi0I_HP2yc-rfD6Y-175" value="!xInput" style="rounded=0;whiteSpace=wrap;html=1;fontSize=10;align=center;verticalAlign=middle;" parent="bRhuMi0I_HP2yc-rfD6Y-196" vertex="1">
          <mxGeometry x="110" y="60" width="30" height="10" as="geometry" />
        </mxCell>
        <mxCell id="bRhuMi0I_HP2yc-rfD6Y-177" value="xInput" style="rounded=0;whiteSpace=wrap;html=1;fontSize=10;align=center;verticalAlign=middle;" parent="bRhuMi0I_HP2yc-rfD6Y-196" vertex="1">
          <mxGeometry x="210" y="60" width="30" height="10" as="geometry" />
        </mxCell>
        <mxCell id="bRhuMi0I_HP2yc-rfD6Y-178" value="!xInput" style="rounded=0;whiteSpace=wrap;html=1;fontSize=10;align=center;verticalAlign=middle;" parent="bRhuMi0I_HP2yc-rfD6Y-196" vertex="1">
          <mxGeometry x="300" y="60" width="30" height="10" as="geometry" />
        </mxCell>
        <mxCell id="bRhuMi0I_HP2yc-rfD6Y-81" value="xInput&lt;br&gt;cInput" style="rounded=0;whiteSpace=wrap;html=1;fontSize=10;align=center;verticalAlign=middle;" parent="bRhuMi0I_HP2yc-rfD6Y-196" vertex="1">
          <mxGeometry x="25" y="147" width="30" height="23" as="geometry" />
        </mxCell>
        <mxCell id="bRhuMi0I_HP2yc-rfD6Y-180" value="" style="endArrow=none;html=1;fontSize=10;entryX=0.5;entryY=0;entryDx=0;entryDy=0;exitX=0.25;exitY=1;exitDx=0;exitDy=0;" parent="bRhuMi0I_HP2yc-rfD6Y-196" source="bRhuMi0I_HP2yc-rfD6Y-60" target="bRhuMi0I_HP2yc-rfD6Y-81" edge="1">
          <mxGeometry width="50" height="50" as="geometry">
            <mxPoint x="40" y="127" as="sourcePoint" />
            <mxPoint x="40" y="200" as="targetPoint" />
            <Array as="points" />
          </mxGeometry>
        </mxCell>
        <mxCell id="bRhuMi0I_HP2yc-rfD6Y-80" value="xInput" style="rounded=0;whiteSpace=wrap;html=1;fontSize=10;align=center;verticalAlign=middle;" parent="bRhuMi0I_HP2yc-rfD6Y-196" vertex="1">
          <mxGeometry x="25" y="60" width="30" height="10" as="geometry" />
        </mxCell>
        <mxCell id="bRhuMi0I_HP2yc-rfD6Y-181" value="" style="endArrow=none;html=1;fontSize=10;exitX=0.25;exitY=1;exitDx=0;exitDy=0;entryX=0.5;entryY=0;entryDx=0;entryDy=0;" parent="bRhuMi0I_HP2yc-rfD6Y-196" source="bRhuMi0I_HP2yc-rfD6Y-54" target="bRhuMi0I_HP2yc-rfD6Y-80" edge="1">
          <mxGeometry width="50" height="50" as="geometry">
            <mxPoint x="40" y="53" as="sourcePoint" />
            <mxPoint x="40" y="97" as="targetPoint" />
          </mxGeometry>
        </mxCell>
        <mxCell id="bRhuMi0I_HP2yc-rfD6Y-83" value="xInput&lt;br&gt;!cInput" style="rounded=0;whiteSpace=wrap;html=1;fontSize=10;align=center;verticalAlign=middle;" parent="bRhuMi0I_HP2yc-rfD6Y-196" vertex="1">
          <mxGeometry x="63" y="157" width="34" height="23" as="geometry" />
        </mxCell>
        <mxCell id="bRhuMi0I_HP2yc-rfD6Y-186" value="" style="endArrow=none;html=1;fontSize=10;entryX=0.5;entryY=1;entryDx=0;entryDy=0;exitX=0.75;exitY=0;exitDx=0;exitDy=0;" parent="bRhuMi0I_HP2yc-rfD6Y-196" source="bRhuMi0I_HP2yc-rfD6Y-58" target="bRhuMi0I_HP2yc-rfD6Y-83" edge="1">
          <mxGeometry width="50" height="50" as="geometry">
            <mxPoint x="80" y="200" as="sourcePoint" />
            <mxPoint x="80" y="127" as="targetPoint" />
            <Array as="points" />
          </mxGeometry>
        </mxCell>
        <mxCell id="bRhuMi0I_HP2yc-rfD6Y-173" value="!xInput" style="rounded=0;whiteSpace=wrap;html=1;fontSize=10;align=center;verticalAlign=middle;" parent="bRhuMi0I_HP2yc-rfD6Y-196" vertex="1">
          <mxGeometry x="150" y="100" width="40" height="10" as="geometry" />
        </mxCell>
        <mxCell id="bRhuMi0I_HP2yc-rfD6Y-187" value="" style="endArrow=none;html=1;fontSize=10;exitX=1;exitY=0.25;exitDx=0;exitDy=0;entryX=0;entryY=0.5;entryDx=0;entryDy=0;" parent="bRhuMi0I_HP2yc-rfD6Y-196" source="bRhuMi0I_HP2yc-rfD6Y-60" target="bRhuMi0I_HP2yc-rfD6Y-173" edge="1">
          <mxGeometry width="50" height="50" as="geometry">
            <mxPoint x="100" y="104.5" as="sourcePoint" />
            <mxPoint x="260" y="104.5" as="targetPoint" />
          </mxGeometry>
        </mxCell>
        <mxCell id="bRhuMi0I_HP2yc-rfD6Y-174" value="xInput" style="rounded=0;whiteSpace=wrap;html=1;fontSize=10;align=center;verticalAlign=middle;" parent="bRhuMi0I_HP2yc-rfD6Y-196" vertex="1">
          <mxGeometry x="155" y="115" width="30" height="10" as="geometry" />
        </mxCell>
        <mxCell id="bRhuMi0I_HP2yc-rfD6Y-188" value="" style="endArrow=none;html=1;fontSize=10;exitX=0;exitY=0.75;exitDx=0;exitDy=0;entryX=1;entryY=0.5;entryDx=0;entryDy=0;" parent="bRhuMi0I_HP2yc-rfD6Y-196" source="bRhuMi0I_HP2yc-rfD6Y-61" target="bRhuMi0I_HP2yc-rfD6Y-174" edge="1">
          <mxGeometry width="50" height="50" as="geometry">
            <mxPoint x="260" y="119.5" as="sourcePoint" />
            <mxPoint x="100" y="119.5" as="targetPoint" />
          </mxGeometry>
        </mxCell>
        <mxCell id="bRhuMi0I_HP2yc-rfD6Y-84" value="!xInput&lt;br&gt;cInput" style="rounded=0;whiteSpace=wrap;html=1;fontSize=10;align=center;verticalAlign=middle;" parent="bRhuMi0I_HP2yc-rfD6Y-196" vertex="1">
          <mxGeometry x="265" y="148" width="30" height="30" as="geometry" />
        </mxCell>
        <mxCell id="bRhuMi0I_HP2yc-rfD6Y-189" value="" style="endArrow=none;html=1;fontSize=10;exitX=0.25;exitY=1;exitDx=0;exitDy=0;entryX=0.5;entryY=0;entryDx=0;entryDy=0;" parent="bRhuMi0I_HP2yc-rfD6Y-196" source="bRhuMi0I_HP2yc-rfD6Y-61" target="bRhuMi0I_HP2yc-rfD6Y-84" edge="1">
          <mxGeometry width="50" height="50" as="geometry">
            <mxPoint x="280" y="127" as="sourcePoint" />
            <mxPoint x="280" y="200" as="targetPoint" />
            <Array as="points" />
          </mxGeometry>
        </mxCell>
        <mxCell id="bRhuMi0I_HP2yc-rfD6Y-179" value="!xInput&lt;br&gt;!cInput" style="rounded=0;whiteSpace=wrap;html=1;fontSize=10;align=center;verticalAlign=middle;" parent="bRhuMi0I_HP2yc-rfD6Y-196" vertex="1">
          <mxGeometry x="305" y="148" width="30" height="30" as="geometry" />
        </mxCell>
        <mxCell id="bRhuMi0I_HP2yc-rfD6Y-190" value="" style="endArrow=none;html=1;fontSize=10;entryX=0.5;entryY=1;entryDx=0;entryDy=0;exitX=0.75;exitY=0;exitDx=0;exitDy=0;" parent="bRhuMi0I_HP2yc-rfD6Y-196" source="bRhuMi0I_HP2yc-rfD6Y-59" target="bRhuMi0I_HP2yc-rfD6Y-179" edge="1">
          <mxGeometry width="50" height="50" as="geometry">
            <mxPoint x="320" y="200" as="sourcePoint" />
            <mxPoint x="320" y="127" as="targetPoint" />
            <Array as="points" />
          </mxGeometry>
        </mxCell>
        <mxCell id="bRhuMi0I_HP2yc-rfD6Y-89" value="!xInput&lt;br&gt;cInput" style="rounded=0;whiteSpace=wrap;html=1;fontSize=10;align=center;verticalAlign=middle;" parent="bRhuMi0I_HP2yc-rfD6Y-196" vertex="1">
          <mxGeometry x="110" y="200" width="45" height="23" as="geometry" />
        </mxCell>
        <mxCell id="bRhuMi0I_HP2yc-rfD6Y-191" value="" style="endArrow=none;html=1;fontSize=10;exitX=1;exitY=0.25;exitDx=0;exitDy=0;entryX=0;entryY=0.5;entryDx=0;entryDy=0;" parent="bRhuMi0I_HP2yc-rfD6Y-196" source="bRhuMi0I_HP2yc-rfD6Y-58" target="bRhuMi0I_HP2yc-rfD6Y-89" edge="1">
          <mxGeometry width="50" height="50" as="geometry">
            <mxPoint x="100" y="207.5" as="sourcePoint" />
            <mxPoint x="260" y="207.5" as="targetPoint" />
          </mxGeometry>
        </mxCell>
        <mxCell id="bRhuMi0I_HP2yc-rfD6Y-90" value="xInput&lt;br&gt;!cInput" style="rounded=0;whiteSpace=wrap;html=1;fontSize=10;align=center;verticalAlign=middle;" parent="bRhuMi0I_HP2yc-rfD6Y-196" vertex="1">
          <mxGeometry x="195" y="224" width="45" height="23" as="geometry" />
        </mxCell>
        <mxCell id="bRhuMi0I_HP2yc-rfD6Y-192" value="" style="endArrow=none;html=1;fontSize=10;exitX=0;exitY=0.75;exitDx=0;exitDy=0;entryX=1;entryY=0.5;entryDx=0;entryDy=0;" parent="bRhuMi0I_HP2yc-rfD6Y-196" source="bRhuMi0I_HP2yc-rfD6Y-59" target="bRhuMi0I_HP2yc-rfD6Y-90" edge="1">
          <mxGeometry width="50" height="50" as="geometry">
            <mxPoint x="260" y="235.2500000000001" as="sourcePoint" />
            <mxPoint x="100" y="235.2500000000001" as="targetPoint" />
          </mxGeometry>
        </mxCell>
        <mxCell id="bRhuMi0I_HP2yc-rfD6Y-201" value="Ledge Climb State" style="rounded=1;whiteSpace=wrap;html=1;fontSize=16;align=center;verticalAlign=middle;fillColor=#dae8fc;strokeColor=#6c8ebf;" parent="1" vertex="1">
          <mxGeometry x="419.5" y="865" width="145" height="60" as="geometry" />
        </mxCell>
        <mxCell id="bRhuMi0I_HP2yc-rfD6Y-215" value="AbilityInput" style="endArrow=classic;html=1;exitX=1;exitY=0.5;exitDx=0;exitDy=0;edgeStyle=orthogonalEdgeStyle;elbow=vertical;startArrow=none;entryX=0.5;entryY=1;entryDx=0;entryDy=0;labelBorderColor=#000000;" parent="1" source="bRhuMi0I_HP2yc-rfD6Y-194" target="bRhuMi0I_HP2yc-rfD6Y-8" edge="1">
          <mxGeometry width="50" height="50" relative="1" as="geometry">
            <mxPoint x="502" y="360" as="sourcePoint" />
            <mxPoint x="1077" y="70" as="targetPoint" />
            <Array as="points">
              <mxPoint x="1347" y="583" />
              <mxPoint x="1347" y="110" />
              <mxPoint x="988" y="110" />
            </Array>
          </mxGeometry>
        </mxCell>
        <mxCell id="bRhuMi0I_HP2yc-rfD6Y-216" value="" style="endArrow=classic;html=1;exitX=1;exitY=0.5;exitDx=0;exitDy=0;entryX=0.5;entryY=1;entryDx=0;entryDy=0;edgeStyle=orthogonalEdgeStyle;elbow=vertical;startArrow=none;" parent="1" source="bRhuMi0I_HP2yc-rfD6Y-195" target="bRhuMi0I_HP2yc-rfD6Y-8" edge="1">
          <mxGeometry width="50" height="50" relative="1" as="geometry">
            <mxPoint x="512" y="370" as="sourcePoint" />
            <mxPoint x="1007.5" y="130" as="targetPoint" />
            <Array as="points">
              <mxPoint x="1347" y="895" />
              <mxPoint x="1347" y="110" />
              <mxPoint x="988" y="110" />
            </Array>
          </mxGeometry>
        </mxCell>
        <mxCell id="bRhuMi0I_HP2yc-rfD6Y-218" value="!isTouchingWall&lt;br&gt;|| !xInput&lt;br&gt;|| !grabInput&lt;br&gt;&amp;amp;&amp;amp; !isgrounded" style="endArrow=classic;html=1;fontSize=10;exitX=1;exitY=0.25;exitDx=0;exitDy=0;entryX=1;entryY=0.75;entryDx=0;entryDy=0;startArrow=none;labelBorderColor=#000000;" parent="1" source="bRhuMi0I_HP2yc-rfD6Y-195" target="bRhuMi0I_HP2yc-rfD6Y-194" edge="1">
          <mxGeometry x="267" y="40" width="50" height="50" as="geometry">
            <mxPoint x="1097" y="670" as="sourcePoint" />
            <mxPoint x="1237" y="699.5" as="targetPoint" />
            <Array as="points">
              <mxPoint x="1267" y="833" />
              <mxPoint x="1267" y="598" />
            </Array>
            <mxPoint x="122" y="-5" as="offset" />
          </mxGeometry>
        </mxCell>
        <mxCell id="bRhuMi0I_HP2yc-rfD6Y-222" value="ledgeDetected" style="endArrow=classic;html=1;fontSize=10;exitX=0.5;exitY=1;exitDx=0;exitDy=0;entryX=0.5;entryY=0;entryDx=0;entryDy=0;startArrow=none;labelBorderColor=#000000;" parent="1" source="bRhuMi0I_HP2yc-rfD6Y-194" target="bRhuMi0I_HP2yc-rfD6Y-201" edge="1">
          <mxGeometry x="267" y="40" width="50" height="50" as="geometry">
            <mxPoint x="887" y="640" as="sourcePoint" />
            <mxPoint x="1027" y="669.5" as="targetPoint" />
            <Array as="points">
              <mxPoint x="988" y="720" />
              <mxPoint x="492" y="720" />
            </Array>
            <mxPoint x="-3" y="-19" as="offset" />
          </mxGeometry>
        </mxCell>
        <mxCell id="bRhuMi0I_HP2yc-rfD6Y-223" value="ledge Detected" style="endArrow=classic;html=1;fontSize=10;exitX=0;exitY=0.5;exitDx=0;exitDy=0;entryX=1;entryY=0.5;entryDx=0;entryDy=0;startArrow=none;labelBorderColor=#000000;" parent="1" source="bRhuMi0I_HP2yc-rfD6Y-195" target="bRhuMi0I_HP2yc-rfD6Y-201" edge="1">
          <mxGeometry x="507" y="359.5" width="50" height="50" as="geometry">
            <mxPoint x="687" y="840" as="sourcePoint" />
            <mxPoint x="827" y="869.5" as="targetPoint" />
          </mxGeometry>
        </mxCell>
        <mxCell id="bRhuMi0I_HP2yc-rfD6Y-224" value="isTouchingWall&lt;br&gt;grabInput" style="endArrow=classic;html=1;fontSize=10;exitX=0.25;exitY=1;exitDx=0;exitDy=0;entryX=0;entryY=0.5;entryDx=0;entryDy=0;startArrow=none;labelBorderColor=#000000;" parent="1" source="bRhuMi0I_HP2yc-rfD6Y-31" target="bRhuMi0I_HP2yc-rfD6Y-197" edge="1">
          <mxGeometry x="267" y="40" width="50" height="50" as="geometry">
            <mxPoint x="597" y="790" as="sourcePoint" />
            <mxPoint x="737" y="819.5" as="targetPoint" />
            <Array as="points">
              <mxPoint x="400" y="854" />
            </Array>
            <mxPoint x="-193" y="-3" as="offset" />
          </mxGeometry>
        </mxCell>
        <mxCell id="bRhuMi0I_HP2yc-rfD6Y-225" value="Ledge Climb Done" style="endArrow=classic;html=1;fontSize=10;exitX=0.25;exitY=0;exitDx=0;exitDy=0;entryX=1;entryY=0.5;entryDx=0;entryDy=0;startArrow=none;labelBorderColor=#000000;" parent="1" source="bRhuMi0I_HP2yc-rfD6Y-201" target="bRhuMi0I_HP2yc-rfD6Y-61" edge="1">
          <mxGeometry x="267" y="40" width="50" height="50" as="geometry">
            <mxPoint x="577" y="790" as="sourcePoint" />
            <mxPoint x="717" y="819.5" as="targetPoint" />
            <Array as="points">
              <mxPoint x="456" y="760" />
              <mxPoint x="797" y="760" />
              <mxPoint x="797" y="565" />
            </Array>
            <mxPoint x="76" y="45" as="offset" />
          </mxGeometry>
        </mxCell>
        <mxCell id="bRhuMi0I_HP2yc-rfD6Y-226" value="groundDetected&lt;br&gt;!grabInput" style="endArrow=classic;html=1;fontSize=10;exitX=0.5;exitY=0;exitDx=0;exitDy=0;entryX=1;entryY=0.5;entryDx=0;entryDy=0;startArrow=none;labelBorderColor=#000000;" parent="1" source="bRhuMi0I_HP2yc-rfD6Y-195" target="bRhuMi0I_HP2yc-rfD6Y-61" edge="1">
          <mxGeometry x="267" y="40" width="50" height="50" as="geometry">
            <mxPoint x="897" y="670" as="sourcePoint" />
            <mxPoint x="1037" y="699.5" as="targetPoint" />
            <Array as="points">
              <mxPoint x="988" y="750" />
              <mxPoint x="857" y="750" />
              <mxPoint x="857" y="565" />
            </Array>
            <mxPoint x="40" y="-7" as="offset" />
          </mxGeometry>
        </mxCell>
        <mxCell id="bRhuMi0I_HP2yc-rfD6Y-227" value="!groundDetected" style="endArrow=classic;html=1;fontSize=10;exitX=1;exitY=0.5;exitDx=0;exitDy=0;entryX=0;entryY=0.5;entryDx=0;entryDy=0;startArrow=none;labelBorderColor=#000000;" parent="1" source="bRhuMi0I_HP2yc-rfD6Y-31" target="bRhuMi0I_HP2yc-rfD6Y-194" edge="1">
          <mxGeometry x="537" y="119.5" width="50" height="50" as="geometry">
            <mxPoint x="717" y="600" as="sourcePoint" />
            <mxPoint x="857" y="629.5" as="targetPoint" />
          </mxGeometry>
        </mxCell>
        <mxCell id="bRhuMi0I_HP2yc-rfD6Y-228" value="AbilityDone&lt;br&gt;Grounded" style="endArrow=classic;html=1;fontSize=10;exitX=0.5;exitY=1;exitDx=0;exitDy=0;startArrow=none;entryX=0.75;entryY=0;entryDx=0;entryDy=0;labelBorderColor=#000000;" parent="1" source="bRhuMi0I_HP2yc-rfD6Y-1" target="bRhuMi0I_HP2yc-rfD6Y-31" edge="1">
          <mxGeometry x="267" y="40" width="50" height="50" as="geometry">
            <mxPoint x="1017" y="430" as="sourcePoint" />
            <mxPoint x="677" y="420" as="targetPoint" />
            <Array as="points">
              <mxPoint x="988" y="430" />
              <mxPoint x="585" y="430" />
            </Array>
            <mxPoint x="1" y="3" as="offset" />
          </mxGeometry>
        </mxCell>
        <mxCell id="bRhuMi0I_HP2yc-rfD6Y-229" value="AbilityDone&lt;br&gt;!Grounded" style="endArrow=classic;html=1;fontSize=10;entryX=0.5;entryY=0;entryDx=0;entryDy=0;startArrow=none;labelBorderColor=#000000;" parent="1" target="bRhuMi0I_HP2yc-rfD6Y-194" edge="1">
          <mxGeometry x="827" y="-40.5" width="50" height="50" as="geometry">
            <mxPoint x="987" y="400" as="sourcePoint" />
            <mxPoint x="1147" y="469.5" as="targetPoint" />
          </mxGeometry>
        </mxCell>
        <mxCell id="bRhuMi0I_HP2yc-rfD6Y-230" value="groundDetected&lt;br&gt;yVel &amp;lt; thresh" style="endArrow=classic;html=1;fontSize=10;exitX=0.25;exitY=0;exitDx=0;exitDy=0;entryX=1;entryY=0.5;entryDx=0;entryDy=0;startArrow=none;labelBorderColor=#000000;" parent="1" source="bRhuMi0I_HP2yc-rfD6Y-194" target="bRhuMi0I_HP2yc-rfD6Y-55" edge="1">
          <mxGeometry x="267" y="40" width="50" height="50" as="geometry">
            <mxPoint x="857" y="530" as="sourcePoint" />
            <mxPoint x="997" y="559.5" as="targetPoint" />
            <Array as="points">
              <mxPoint x="958" y="491" />
              <mxPoint x="737" y="491" />
            </Array>
            <mxPoint x="5" y="-31" as="offset" />
          </mxGeometry>
        </mxCell>
        <mxCell id="bRhuMi0I_HP2yc-rfD6Y-231" value="groundDetected&lt;br&gt;yVel &amp;gt; thresh" style="endArrow=classic;html=1;fontSize=10;startArrow=none;exitX=0.25;exitY=0;exitDx=0;exitDy=0;entryX=0.75;entryY=0;entryDx=0;entryDy=0;labelBorderColor=#000000;" parent="1" source="bRhuMi0I_HP2yc-rfD6Y-194" target="bRhuMi0I_HP2yc-rfD6Y-54" edge="1">
          <mxGeometry x="267" y="40" width="50" height="50" as="geometry">
            <mxPoint x="957" y="550" as="sourcePoint" />
            <mxPoint x="557" y="420" as="targetPoint" />
            <Array as="points">
              <mxPoint x="958" y="410" />
              <mxPoint x="387" y="410" />
            </Array>
            <mxPoint x="-5" y="-105" as="offset" />
          </mxGeometry>
        </mxCell>
        <mxCell id="LhIIKjO1wBnI917-eCC8-1" value="" style="group" parent="1" vertex="1" connectable="0">
          <mxGeometry x="732.5" y="770" width="510" height="250" as="geometry" />
        </mxCell>
        <mxCell id="bRhuMi0I_HP2yc-rfD6Y-195" value="Touching Wall" style="rounded=0;whiteSpace=wrap;html=1;fontSize=15;align=center;verticalAlign=top;fillColor=#fff2cc;strokeColor=#d6b656;horizontal=1;fontStyle=1" parent="LhIIKjO1wBnI917-eCC8-1" vertex="1">
          <mxGeometry width="510" height="250" as="geometry" />
        </mxCell>
        <mxCell id="bRhuMi0I_HP2yc-rfD6Y-197" value="Wall Grab State" style="rounded=1;whiteSpace=wrap;html=1;fontSize=12;align=center;verticalAlign=middle;fillColor=#d5e8d4;strokeColor=#82b366;fontStyle=0" parent="LhIIKjO1wBnI917-eCC8-1" vertex="1">
          <mxGeometry x="53.5" y="64" width="120" height="40" as="geometry" />
        </mxCell>
        <mxCell id="bRhuMi0I_HP2yc-rfD6Y-202" value="Wall Slide State" style="rounded=1;whiteSpace=wrap;html=1;fontSize=12;align=center;verticalAlign=middle;fillColor=#dae8fc;strokeColor=#6c8ebf;fontStyle=0" parent="LhIIKjO1wBnI917-eCC8-1" vertex="1">
          <mxGeometry x="364.5" y="64" width="120" height="40" as="geometry" />
        </mxCell>
        <mxCell id="bRhuMi0I_HP2yc-rfD6Y-203" value="Wall Climb State" style="rounded=1;whiteSpace=wrap;html=1;fontSize=12;align=center;verticalAlign=middle;fillColor=#d5e8d4;strokeColor=#82b366;fontStyle=0" parent="LhIIKjO1wBnI917-eCC8-1" vertex="1">
          <mxGeometry x="53.5" y="180" width="120" height="40" as="geometry" />
        </mxCell>
        <mxCell id="bRhuMi0I_HP2yc-rfD6Y-204" value="" style="endArrow=classic;html=1;exitX=0.5;exitY=1;exitDx=0;exitDy=0;entryX=0.25;entryY=0;entryDx=0;entryDy=0;edgeStyle=orthogonalEdgeStyle;elbow=vertical;startArrow=none;" parent="LhIIKjO1wBnI917-eCC8-1" source="bRhuMi0I_HP2yc-rfD6Y-210" target="bRhuMi0I_HP2yc-rfD6Y-203" edge="1">
          <mxGeometry width="50" height="50" relative="1" as="geometry">
            <mxPoint x="164.5" y="-50" as="sourcePoint" />
            <mxPoint x="45" y="108" as="targetPoint" />
            <Array as="points">
              <mxPoint x="83.5" y="150" />
            </Array>
          </mxGeometry>
        </mxCell>
        <mxCell id="bRhuMi0I_HP2yc-rfD6Y-205" value="" style="endArrow=classic;html=1;exitX=0.5;exitY=0;exitDx=0;exitDy=0;edgeStyle=orthogonalEdgeStyle;elbow=vertical;startArrow=none;" parent="LhIIKjO1wBnI917-eCC8-1" source="bRhuMi0I_HP2yc-rfD6Y-208" edge="1">
          <mxGeometry width="50" height="50" relative="1" as="geometry">
            <mxPoint x="100.25" y="107" as="sourcePoint" />
            <mxPoint x="143.5" y="104" as="targetPoint" />
            <Array as="points">
              <mxPoint x="143.5" y="135" />
            </Array>
          </mxGeometry>
        </mxCell>
        <mxCell id="bRhuMi0I_HP2yc-rfD6Y-206" value="neg yInput" style="endArrow=classic;html=1;exitX=1;exitY=0.75;exitDx=0;exitDy=0;edgeStyle=orthogonalEdgeStyle;elbow=vertical;entryX=0;entryY=0.75;entryDx=0;entryDy=0;fontSize=10;labelBorderColor=#000000;" parent="LhIIKjO1wBnI917-eCC8-1" source="bRhuMi0I_HP2yc-rfD6Y-197" target="bRhuMi0I_HP2yc-rfD6Y-202" edge="1">
          <mxGeometry width="50" height="50" relative="1" as="geometry">
            <mxPoint x="110.25" y="117" as="sourcePoint" />
            <mxPoint x="110.25" y="200" as="targetPoint" />
            <Array as="points">
              <mxPoint x="274.5" y="94" />
              <mxPoint x="274.5" y="94" />
            </Array>
          </mxGeometry>
        </mxCell>
        <mxCell id="bRhuMi0I_HP2yc-rfD6Y-207" value="grabInput" style="endArrow=classic;html=1;exitX=0;exitY=0.25;exitDx=0;exitDy=0;entryX=1;entryY=0.25;entryDx=0;entryDy=0;edgeStyle=orthogonalEdgeStyle;elbow=vertical;fontSize=10;labelBorderColor=#000000;" parent="LhIIKjO1wBnI917-eCC8-1" source="bRhuMi0I_HP2yc-rfD6Y-202" target="bRhuMi0I_HP2yc-rfD6Y-197" edge="1">
          <mxGeometry width="50" height="50" relative="1" as="geometry">
            <mxPoint x="120.25" y="127" as="sourcePoint" />
            <mxPoint x="120.25" y="210" as="targetPoint" />
            <Array as="points" />
          </mxGeometry>
        </mxCell>
        <mxCell id="bRhuMi0I_HP2yc-rfD6Y-208" value="!yInput&lt;br&gt;grabInpit" style="rounded=0;whiteSpace=wrap;html=1;fontSize=10;align=center;verticalAlign=middle;" parent="LhIIKjO1wBnI917-eCC8-1" vertex="1">
          <mxGeometry x="121.5" y="130" width="45" height="25" as="geometry" />
        </mxCell>
        <mxCell id="bRhuMi0I_HP2yc-rfD6Y-209" value="" style="endArrow=none;html=1;exitX=0.75;exitY=0;exitDx=0;exitDy=0;entryX=0.5;entryY=1;entryDx=0;entryDy=0;edgeStyle=orthogonalEdgeStyle;elbow=vertical;" parent="LhIIKjO1wBnI917-eCC8-1" source="bRhuMi0I_HP2yc-rfD6Y-203" target="bRhuMi0I_HP2yc-rfD6Y-208" edge="1">
          <mxGeometry width="50" height="50" relative="1" as="geometry">
            <mxPoint x="147.75" y="180" as="sourcePoint" />
            <mxPoint x="147.75" y="104" as="targetPoint" />
            <Array as="points">
              <mxPoint x="143.5" y="160" />
              <mxPoint x="143.5" y="160" />
            </Array>
          </mxGeometry>
        </mxCell>
        <mxCell id="bRhuMi0I_HP2yc-rfD6Y-210" value="pos&lt;br&gt;yInput" style="rounded=0;whiteSpace=wrap;html=1;fontSize=10;align=center;verticalAlign=middle;" parent="LhIIKjO1wBnI917-eCC8-1" vertex="1">
          <mxGeometry x="61.5" y="130" width="45" height="25" as="geometry" />
        </mxCell>
        <mxCell id="bRhuMi0I_HP2yc-rfD6Y-211" value="" style="endArrow=none;html=1;exitX=0.25;exitY=1;exitDx=0;exitDy=0;entryX=0.5;entryY=0;entryDx=0;entryDy=0;edgeStyle=orthogonalEdgeStyle;elbow=vertical;" parent="LhIIKjO1wBnI917-eCC8-1" source="bRhuMi0I_HP2yc-rfD6Y-197" target="bRhuMi0I_HP2yc-rfD6Y-210" edge="1">
          <mxGeometry width="50" height="50" relative="1" as="geometry">
            <mxPoint x="90.25" y="104" as="sourcePoint" />
            <mxPoint x="90.25" y="180.0000000000001" as="targetPoint" />
            <Array as="points" />
          </mxGeometry>
        </mxCell>
        <mxCell id="j-WS8WipbD-k7poN21yg-1" value="Grounded State" style="rounded=0;whiteSpace=wrap;html=1;fontSize=15;align=center;verticalAlign=top;fillColor=#fff2cc;strokeColor=#d6b656;fontStyle=1" parent="1" vertex="1">
          <mxGeometry x="2010" y="443" width="370" height="260" as="geometry" />
        </mxCell>
        <mxCell id="j-WS8WipbD-k7poN21yg-2" value="Touching Wall" style="rounded=0;whiteSpace=wrap;html=1;fontSize=15;align=left;verticalAlign=top;fillColor=#fff2cc;strokeColor=#d6b656;horizontal=1;fontStyle=1" parent="1" vertex="1">
          <mxGeometry x="2580" y="760" width="220" height="250" as="geometry" />
        </mxCell>
        <mxCell id="j-WS8WipbD-k7poN21yg-3" value="" style="endArrow=classic;html=1;exitX=0.5;exitY=0;exitDx=0;exitDy=0;entryX=0.5;entryY=1;entryDx=0;entryDy=0;edgeStyle=orthogonalEdgeStyle;elbow=vertical;startArrow=none;" parent="1" source="j-WS8WipbD-k7poN21yg-4" target="j-WS8WipbD-k7poN21yg-69" edge="1">
          <mxGeometry width="50" height="50" relative="1" as="geometry">
            <mxPoint x="2389.5" y="110" as="sourcePoint" />
            <mxPoint x="2190" y="208" as="targetPoint" />
            <Array as="points">
              <mxPoint x="2195" y="100" />
              <mxPoint x="2691" y="100" />
            </Array>
          </mxGeometry>
        </mxCell>
        <mxCell id="j-WS8WipbD-k7poN21yg-4" value="Ability Input" style="rounded=0;whiteSpace=wrap;html=1;fontSize=10;align=center;verticalAlign=top;" parent="1" vertex="1">
          <mxGeometry x="2165" y="340" width="60" height="20" as="geometry" />
        </mxCell>
        <mxCell id="j-WS8WipbD-k7poN21yg-5" value="" style="endArrow=none;html=1;exitX=0.5;exitY=0;exitDx=0;exitDy=0;entryX=0.5;entryY=1;entryDx=0;entryDy=0;edgeStyle=orthogonalEdgeStyle;elbow=vertical;startArrow=none;" parent="1" source="j-WS8WipbD-k7poN21yg-1" target="j-WS8WipbD-k7poN21yg-4" edge="1">
          <mxGeometry width="50" height="50" relative="1" as="geometry">
            <mxPoint x="2195" y="443" as="sourcePoint" />
            <mxPoint x="2690.5" y="100" as="targetPoint" />
            <Array as="points" />
          </mxGeometry>
        </mxCell>
        <mxCell id="j-WS8WipbD-k7poN21yg-6" value="inAir State" style="rounded=1;whiteSpace=wrap;html=1;fontSize=16;align=center;verticalAlign=middle;fillColor=#dae8fc;strokeColor=#6c8ebf;" parent="1" vertex="1">
          <mxGeometry x="2630.5" y="543" width="120" height="60" as="geometry" />
        </mxCell>
        <mxCell id="j-WS8WipbD-k7poN21yg-7" value="Ledge Climb State" style="rounded=1;whiteSpace=wrap;html=1;fontSize=16;align=center;verticalAlign=middle;fillColor=#dae8fc;strokeColor=#6c8ebf;" parent="1" vertex="1">
          <mxGeometry x="2122.5" y="855" width="145" height="60" as="geometry" />
        </mxCell>
        <mxCell id="j-WS8WipbD-k7poN21yg-8" value="AbilityInput" style="endArrow=classic;html=1;exitX=1;exitY=0.5;exitDx=0;exitDy=0;edgeStyle=orthogonalEdgeStyle;elbow=vertical;startArrow=none;entryX=0.5;entryY=1;entryDx=0;entryDy=0;labelBorderColor=#000000;" parent="1" source="j-WS8WipbD-k7poN21yg-6" target="j-WS8WipbD-k7poN21yg-69" edge="1">
          <mxGeometry width="50" height="50" relative="1" as="geometry">
            <mxPoint x="2205" y="350" as="sourcePoint" />
            <mxPoint x="2780" y="60" as="targetPoint" />
            <Array as="points">
              <mxPoint x="3050" y="573" />
              <mxPoint x="3050" y="100" />
              <mxPoint x="2691" y="100" />
            </Array>
          </mxGeometry>
        </mxCell>
        <mxCell id="j-WS8WipbD-k7poN21yg-9" value="" style="endArrow=classic;html=1;exitX=1;exitY=0.5;exitDx=0;exitDy=0;entryX=0.5;entryY=1;entryDx=0;entryDy=0;edgeStyle=orthogonalEdgeStyle;elbow=vertical;startArrow=none;" parent="1" source="j-WS8WipbD-k7poN21yg-2" target="j-WS8WipbD-k7poN21yg-69" edge="1">
          <mxGeometry width="50" height="50" relative="1" as="geometry">
            <mxPoint x="2215" y="360" as="sourcePoint" />
            <mxPoint x="2710.5" y="120" as="targetPoint" />
            <Array as="points">
              <mxPoint x="3050" y="885" />
              <mxPoint x="3050" y="100" />
              <mxPoint x="2691" y="100" />
            </Array>
          </mxGeometry>
        </mxCell>
        <mxCell id="j-WS8WipbD-k7poN21yg-10" value="!isTouchingWall&lt;br&gt;|| !xInput&lt;br&gt;|| !antiGrav&lt;br&gt;&amp;amp;&amp;amp; !isgrounded" style="endArrow=classic;html=1;fontSize=10;exitX=1;exitY=0.25;exitDx=0;exitDy=0;entryX=1;entryY=0.75;entryDx=0;entryDy=0;startArrow=none;labelBorderColor=#000000;" parent="1" source="j-WS8WipbD-k7poN21yg-2" target="j-WS8WipbD-k7poN21yg-6" edge="1">
          <mxGeometry width="50" height="50" as="geometry">
            <mxPoint x="2800" y="660" as="sourcePoint" />
            <mxPoint x="2940" y="689.5" as="targetPoint" />
            <Array as="points">
              <mxPoint x="2970" y="823" />
              <mxPoint x="2970" y="588" />
            </Array>
            <mxPoint x="195" y="-5" as="offset" />
          </mxGeometry>
        </mxCell>
        <mxCell id="j-WS8WipbD-k7poN21yg-11" value="ledgeDetected" style="endArrow=classic;html=1;fontSize=10;exitX=0.25;exitY=1;exitDx=0;exitDy=0;entryX=0.5;entryY=0;entryDx=0;entryDy=0;startArrow=none;labelBorderColor=#000000;" parent="1" source="j-WS8WipbD-k7poN21yg-6" target="j-WS8WipbD-k7poN21yg-7" edge="1">
          <mxGeometry x="1970" y="30" width="50" height="50" as="geometry">
            <mxPoint x="2590" y="630" as="sourcePoint" />
            <mxPoint x="2730" y="659.5" as="targetPoint" />
            <Array as="points">
              <mxPoint x="2661" y="660" />
              <mxPoint x="2661" y="710" />
              <mxPoint x="2630" y="710" />
              <mxPoint x="2195" y="710" />
            </Array>
            <mxPoint x="-3" y="-19" as="offset" />
          </mxGeometry>
        </mxCell>
        <mxCell id="j-WS8WipbD-k7poN21yg-12" value="isTouchingWall&lt;br&gt;antiGrav" style="endArrow=classic;html=1;fontSize=10;exitX=0.5;exitY=1;exitDx=0;exitDy=0;startArrow=none;labelBorderColor=#000000;entryX=0.5;entryY=0;entryDx=0;entryDy=0;" parent="1" source="j-WS8WipbD-k7poN21yg-6" target="j-WS8WipbD-k7poN21yg-79" edge="1">
          <mxGeometry width="50" height="50" as="geometry">
            <mxPoint x="2610" y="670" as="sourcePoint" />
            <mxPoint x="2750" y="699.5" as="targetPoint" />
            <Array as="points" />
            <mxPoint x="10" y="-3" as="offset" />
          </mxGeometry>
        </mxCell>
        <mxCell id="j-WS8WipbD-k7poN21yg-13" value="ledge Detected" style="endArrow=classic;html=1;fontSize=10;exitX=0;exitY=0.5;exitDx=0;exitDy=0;entryX=1;entryY=0.5;entryDx=0;entryDy=0;startArrow=none;labelBorderColor=#000000;" parent="1" source="j-WS8WipbD-k7poN21yg-2" target="j-WS8WipbD-k7poN21yg-7" edge="1">
          <mxGeometry x="2210" y="349.5" width="50" height="50" as="geometry">
            <mxPoint x="2390" y="830" as="sourcePoint" />
            <mxPoint x="2530" y="859.5" as="targetPoint" />
          </mxGeometry>
        </mxCell>
        <mxCell id="j-WS8WipbD-k7poN21yg-14" value="isTouchingWall&lt;br&gt;antiGrav" style="endArrow=classic;html=1;fontSize=10;exitX=0.25;exitY=1;exitDx=0;exitDy=0;entryX=0;entryY=0.5;entryDx=0;entryDy=0;startArrow=none;labelBorderColor=#000000;" parent="1" source="j-WS8WipbD-k7poN21yg-1" target="j-WS8WipbD-k7poN21yg-79" edge="1">
          <mxGeometry width="50" height="50" as="geometry">
            <mxPoint x="2300" y="780" as="sourcePoint" />
            <mxPoint x="2440" y="809.5" as="targetPoint" />
            <Array as="points">
              <mxPoint x="2103" y="844" />
            </Array>
            <mxPoint x="-264" y="-4" as="offset" />
          </mxGeometry>
        </mxCell>
        <mxCell id="j-WS8WipbD-k7poN21yg-15" value="Ledge Climb Done" style="endArrow=classic;html=1;fontSize=10;exitX=0.25;exitY=0;exitDx=0;exitDy=0;entryX=1;entryY=0.5;entryDx=0;entryDy=0;startArrow=none;labelBorderColor=#000000;" parent="1" source="j-WS8WipbD-k7poN21yg-7" target="j-WS8WipbD-k7poN21yg-26" edge="1">
          <mxGeometry x="1970" y="30" width="50" height="50" as="geometry">
            <mxPoint x="2280" y="780" as="sourcePoint" />
            <mxPoint x="2420" y="809.5" as="targetPoint" />
            <Array as="points">
              <mxPoint x="2159" y="750" />
              <mxPoint x="2500" y="750" />
              <mxPoint x="2500" y="555" />
            </Array>
            <mxPoint x="76" y="45" as="offset" />
          </mxGeometry>
        </mxCell>
        <mxCell id="j-WS8WipbD-k7poN21yg-16" value="groundDetected&lt;br&gt;!antiGrav" style="endArrow=classic;html=1;fontSize=10;exitX=0.25;exitY=0;exitDx=0;exitDy=0;entryX=1;entryY=0.5;entryDx=0;entryDy=0;startArrow=none;labelBorderColor=#000000;" parent="1" source="j-WS8WipbD-k7poN21yg-2" target="j-WS8WipbD-k7poN21yg-26" edge="1">
          <mxGeometry width="50" height="50" as="geometry">
            <mxPoint x="2600" y="660" as="sourcePoint" />
            <mxPoint x="2740" y="689.5" as="targetPoint" />
            <Array as="points">
              <mxPoint x="2635" y="740" />
              <mxPoint x="2560" y="740" />
              <mxPoint x="2560" y="555" />
            </Array>
            <mxPoint x="68" y="-7" as="offset" />
          </mxGeometry>
        </mxCell>
        <mxCell id="j-WS8WipbD-k7poN21yg-17" value="!groundDetected" style="endArrow=classic;html=1;fontSize=10;exitX=1;exitY=0.5;exitDx=0;exitDy=0;entryX=0;entryY=0.5;entryDx=0;entryDy=0;startArrow=none;labelBorderColor=#000000;" parent="1" source="j-WS8WipbD-k7poN21yg-1" target="j-WS8WipbD-k7poN21yg-6" edge="1">
          <mxGeometry x="2240" y="109.5" width="50" height="50" as="geometry">
            <mxPoint x="2420" y="590" as="sourcePoint" />
            <mxPoint x="2560" y="619.5" as="targetPoint" />
          </mxGeometry>
        </mxCell>
        <mxCell id="j-WS8WipbD-k7poN21yg-18" value="AbilityDone&lt;br&gt;Grounded" style="endArrow=classic;html=1;fontSize=10;exitX=0.5;exitY=1;exitDx=0;exitDy=0;startArrow=none;entryX=0.75;entryY=0;entryDx=0;entryDy=0;labelBorderColor=#000000;" parent="1" source="j-WS8WipbD-k7poN21yg-64" target="j-WS8WipbD-k7poN21yg-1" edge="1">
          <mxGeometry x="1970" y="30" width="50" height="50" as="geometry">
            <mxPoint x="2720" y="420" as="sourcePoint" />
            <mxPoint x="2380" y="410" as="targetPoint" />
            <Array as="points">
              <mxPoint x="2691" y="420" />
              <mxPoint x="2288" y="420" />
            </Array>
            <mxPoint x="1" y="3" as="offset" />
          </mxGeometry>
        </mxCell>
        <mxCell id="j-WS8WipbD-k7poN21yg-19" value="AbilityDone&lt;br&gt;!Grounded" style="endArrow=classic;html=1;fontSize=10;entryX=0.5;entryY=0;entryDx=0;entryDy=0;startArrow=none;labelBorderColor=#000000;" parent="1" target="j-WS8WipbD-k7poN21yg-6" edge="1">
          <mxGeometry x="2530" y="-50.5" width="50" height="50" as="geometry">
            <mxPoint x="2690" y="390" as="sourcePoint" />
            <mxPoint x="2850" y="459.5" as="targetPoint" />
          </mxGeometry>
        </mxCell>
        <mxCell id="j-WS8WipbD-k7poN21yg-20" value="groundDetected&lt;br&gt;yVel &amp;lt; thresh" style="endArrow=classic;html=1;fontSize=10;exitX=0.25;exitY=0;exitDx=0;exitDy=0;entryX=1;entryY=0.5;entryDx=0;entryDy=0;startArrow=none;labelBorderColor=#000000;" parent="1" source="j-WS8WipbD-k7poN21yg-6" target="j-WS8WipbD-k7poN21yg-22" edge="1">
          <mxGeometry x="1970" y="30" width="50" height="50" as="geometry">
            <mxPoint x="2560" y="520" as="sourcePoint" />
            <mxPoint x="2700" y="549.5" as="targetPoint" />
            <Array as="points">
              <mxPoint x="2661" y="481" />
              <mxPoint x="2440" y="481" />
            </Array>
            <mxPoint x="5" y="-31" as="offset" />
          </mxGeometry>
        </mxCell>
        <mxCell id="j-WS8WipbD-k7poN21yg-21" value="Hard Land State" style="rounded=1;whiteSpace=wrap;html=1;fontSize=12;align=center;verticalAlign=middle;fillColor=#d5e8d4;strokeColor=#82b366;" parent="1" vertex="1">
          <mxGeometry x="2030" y="466" width="80" height="30" as="geometry" />
        </mxCell>
        <mxCell id="j-WS8WipbD-k7poN21yg-22" value="Land State" style="rounded=1;whiteSpace=wrap;html=1;fontSize=12;align=center;verticalAlign=middle;fillColor=#d5e8d4;strokeColor=#82b366;" parent="1" vertex="1">
          <mxGeometry x="2270" y="466" width="80" height="30" as="geometry" />
        </mxCell>
        <mxCell id="j-WS8WipbD-k7poN21yg-23" value="Crouch Move State" style="rounded=1;whiteSpace=wrap;html=1;fontSize=12;align=center;verticalAlign=middle;fillColor=#dae8fc;strokeColor=#6c8ebf;" parent="1" vertex="1">
          <mxGeometry x="2030" y="643" width="80" height="47" as="geometry" />
        </mxCell>
        <mxCell id="j-WS8WipbD-k7poN21yg-24" value="Crouch Idle State" style="rounded=1;whiteSpace=wrap;html=1;fontSize=12;align=center;verticalAlign=middle;fillColor=#dae8fc;strokeColor=#6c8ebf;" parent="1" vertex="1">
          <mxGeometry x="2270" y="643" width="80" height="47" as="geometry" />
        </mxCell>
        <mxCell id="j-WS8WipbD-k7poN21yg-25" value="Move State" style="rounded=1;whiteSpace=wrap;html=1;fontSize=12;align=center;verticalAlign=middle;fillColor=#dae8fc;strokeColor=#6c8ebf;" parent="1" vertex="1">
          <mxGeometry x="2030" y="540" width="80" height="30" as="geometry" />
        </mxCell>
        <mxCell id="j-WS8WipbD-k7poN21yg-26" value="Idle State" style="rounded=1;whiteSpace=wrap;html=1;fontSize=12;align=center;verticalAlign=middle;fillColor=#dae8fc;strokeColor=#6c8ebf;" parent="1" vertex="1">
          <mxGeometry x="2270" y="540" width="80" height="30" as="geometry" />
        </mxCell>
        <mxCell id="j-WS8WipbD-k7poN21yg-27" value="" style="endArrow=classic;html=1;fontSize=10;exitX=0.5;exitY=1;exitDx=0;exitDy=0;entryX=0.25;entryY=0;entryDx=0;entryDy=0;startArrow=none;" parent="1" source="j-WS8WipbD-k7poN21yg-48" target="j-WS8WipbD-k7poN21yg-25" edge="1">
          <mxGeometry x="2010" y="443" width="50" height="50" as="geometry">
            <mxPoint x="2040" y="553" as="sourcePoint" />
            <mxPoint x="2090" y="503" as="targetPoint" />
          </mxGeometry>
        </mxCell>
        <mxCell id="j-WS8WipbD-k7poN21yg-28" value="" style="endArrow=classic;html=1;fontSize=10;entryX=0.25;entryY=0;entryDx=0;entryDy=0;exitX=0.5;exitY=1;exitDx=0;exitDy=0;startArrow=none;" parent="1" source="j-WS8WipbD-k7poN21yg-46" target="j-WS8WipbD-k7poN21yg-23" edge="1">
          <mxGeometry x="2010" y="443" width="50" height="50" as="geometry">
            <mxPoint x="2050" y="553" as="sourcePoint" />
            <mxPoint x="2050" y="523" as="targetPoint" />
            <Array as="points">
              <mxPoint x="2050" y="630" />
            </Array>
          </mxGeometry>
        </mxCell>
        <mxCell id="j-WS8WipbD-k7poN21yg-29" value="" style="endArrow=classic;html=1;fontSize=10;exitX=0.5;exitY=1;exitDx=0;exitDy=0;entryX=0.25;entryY=0;entryDx=0;entryDy=0;startArrow=none;" parent="1" source="j-WS8WipbD-k7poN21yg-56" target="j-WS8WipbD-k7poN21yg-24" edge="1">
          <mxGeometry x="2010" y="443" width="50" height="50" as="geometry">
            <mxPoint x="2330" y="553" as="sourcePoint" />
            <mxPoint x="2330" y="643" as="targetPoint" />
            <Array as="points" />
          </mxGeometry>
        </mxCell>
        <mxCell id="j-WS8WipbD-k7poN21yg-30" value="" style="endArrow=classic;html=1;fontSize=10;entryX=0.75;entryY=1;entryDx=0;entryDy=0;exitX=0.5;exitY=0;exitDx=0;exitDy=0;startArrow=none;" parent="1" source="j-WS8WipbD-k7poN21yg-50" target="j-WS8WipbD-k7poN21yg-25" edge="1">
          <mxGeometry x="2010" y="443" width="50" height="50" as="geometry">
            <mxPoint x="2060" y="563" as="sourcePoint" />
            <mxPoint x="2060" y="653" as="targetPoint" />
            <Array as="points" />
          </mxGeometry>
        </mxCell>
        <mxCell id="j-WS8WipbD-k7poN21yg-31" value="" style="endArrow=classic;html=1;fontSize=10;entryX=0.75;entryY=1;entryDx=0;entryDy=0;exitX=0.5;exitY=0;exitDx=0;exitDy=0;startArrow=none;" parent="1" source="j-WS8WipbD-k7poN21yg-58" target="j-WS8WipbD-k7poN21yg-26" edge="1">
          <mxGeometry x="2010" y="443" width="50" height="50" as="geometry">
            <mxPoint x="2070" y="573" as="sourcePoint" />
            <mxPoint x="2070" y="663" as="targetPoint" />
            <Array as="points" />
          </mxGeometry>
        </mxCell>
        <mxCell id="j-WS8WipbD-k7poN21yg-32" value="" style="endArrow=classic;html=1;fontSize=10;exitX=0.75;exitY=1;exitDx=0;exitDy=0;entryX=0.75;entryY=0;entryDx=0;entryDy=0;" parent="1" source="j-WS8WipbD-k7poN21yg-22" target="j-WS8WipbD-k7poN21yg-26" edge="1">
          <mxGeometry x="2010" y="443" width="50" height="50" as="geometry">
            <mxPoint x="2060" y="506" as="sourcePoint" />
            <mxPoint x="2060" y="533" as="targetPoint" />
          </mxGeometry>
        </mxCell>
        <mxCell id="j-WS8WipbD-k7poN21yg-33" value="" style="endArrow=classic;html=1;fontSize=10;exitX=1;exitY=0.75;exitDx=0;exitDy=0;entryX=0.25;entryY=0;entryDx=0;entryDy=0;startArrow=none;" parent="1" source="j-WS8WipbD-k7poN21yg-43" target="j-WS8WipbD-k7poN21yg-26" edge="1">
          <mxGeometry x="2010" y="443" width="50" height="50" as="geometry">
            <mxPoint x="2070" y="516" as="sourcePoint" />
            <mxPoint x="2070" y="543" as="targetPoint" />
          </mxGeometry>
        </mxCell>
        <mxCell id="j-WS8WipbD-k7poN21yg-34" value="" style="endArrow=classic;html=1;fontSize=10;exitX=0.25;exitY=1;exitDx=0;exitDy=0;entryX=0.75;entryY=0;entryDx=0;entryDy=0;" parent="1" source="j-WS8WipbD-k7poN21yg-22" target="j-WS8WipbD-k7poN21yg-25" edge="1">
          <mxGeometry x="2010" y="443" width="50" height="50" as="geometry">
            <mxPoint x="2100" y="506" as="sourcePoint" />
            <mxPoint x="2300" y="533" as="targetPoint" />
          </mxGeometry>
        </mxCell>
        <mxCell id="j-WS8WipbD-k7poN21yg-35" value="" style="endArrow=classic;html=1;fontSize=10;exitX=0;exitY=0.5;exitDx=0;exitDy=0;entryX=1;entryY=0.75;entryDx=0;entryDy=0;startArrow=none;" parent="1" source="j-WS8WipbD-k7poN21yg-54" target="j-WS8WipbD-k7poN21yg-25" edge="1">
          <mxGeometry x="2010" y="443" width="50" height="50" as="geometry">
            <mxPoint x="2300" y="506" as="sourcePoint" />
            <mxPoint x="2100" y="533" as="targetPoint" />
          </mxGeometry>
        </mxCell>
        <mxCell id="j-WS8WipbD-k7poN21yg-36" value="" style="endArrow=classic;html=1;fontSize=10;exitX=1;exitY=0.5;exitDx=0;exitDy=0;entryX=0;entryY=0.25;entryDx=0;entryDy=0;startArrow=none;" parent="1" source="j-WS8WipbD-k7poN21yg-52" target="j-WS8WipbD-k7poN21yg-26" edge="1">
          <mxGeometry x="2010" y="443" width="50" height="50" as="geometry">
            <mxPoint x="2280" y="555.5" as="sourcePoint" />
            <mxPoint x="2120" y="555.5" as="targetPoint" />
          </mxGeometry>
        </mxCell>
        <mxCell id="j-WS8WipbD-k7poN21yg-37" value="" style="endArrow=classic;html=1;fontSize=10;exitX=1;exitY=0.5;exitDx=0;exitDy=0;entryX=0;entryY=0.25;entryDx=0;entryDy=0;startArrow=none;" parent="1" source="j-WS8WipbD-k7poN21yg-60" target="j-WS8WipbD-k7poN21yg-24" edge="1">
          <mxGeometry x="2010" y="443" width="50" height="50" as="geometry">
            <mxPoint x="2120" y="540.5" as="sourcePoint" />
            <mxPoint x="2280" y="540.5" as="targetPoint" />
          </mxGeometry>
        </mxCell>
        <mxCell id="j-WS8WipbD-k7poN21yg-38" value="" style="endArrow=classic;html=1;fontSize=10;exitX=0;exitY=0.5;exitDx=0;exitDy=0;entryX=1;entryY=0.75;entryDx=0;entryDy=0;startArrow=none;" parent="1" source="j-WS8WipbD-k7poN21yg-62" target="j-WS8WipbD-k7poN21yg-23" edge="1">
          <mxGeometry x="2010" y="443" width="50" height="50" as="geometry">
            <mxPoint x="2120" y="660.5" as="sourcePoint" />
            <mxPoint x="2280" y="660.5" as="targetPoint" />
          </mxGeometry>
        </mxCell>
        <mxCell id="j-WS8WipbD-k7poN21yg-39" value="!xInput" style="rounded=0;whiteSpace=wrap;html=1;fontSize=10;align=center;verticalAlign=middle;" parent="1" vertex="1">
          <mxGeometry x="2120" y="503" width="30" height="10" as="geometry" />
        </mxCell>
        <mxCell id="j-WS8WipbD-k7poN21yg-40" value="" style="endArrow=none;html=1;fontSize=10;exitX=0.75;exitY=1;exitDx=0;exitDy=0;entryX=0;entryY=0;entryDx=0;entryDy=0;" parent="1" source="j-WS8WipbD-k7poN21yg-21" target="j-WS8WipbD-k7poN21yg-43" edge="1">
          <mxGeometry x="2010" y="443" width="50" height="50" as="geometry">
            <mxPoint x="2090" y="496" as="sourcePoint" />
            <mxPoint x="2290" y="540" as="targetPoint" />
          </mxGeometry>
        </mxCell>
        <mxCell id="j-WS8WipbD-k7poN21yg-41" value="xInput" style="rounded=0;whiteSpace=wrap;html=1;fontSize=10;align=center;verticalAlign=middle;" parent="1" vertex="1">
          <mxGeometry x="2220" y="503" width="30" height="10" as="geometry" />
        </mxCell>
        <mxCell id="j-WS8WipbD-k7poN21yg-42" value="" style="rounded=0;whiteSpace=wrap;html=1;fontSize=10;align=center;verticalAlign=middle;" parent="1" vertex="1">
          <mxGeometry x="2310" y="503" width="30" height="10" as="geometry" />
        </mxCell>
        <mxCell id="j-WS8WipbD-k7poN21yg-43" value="!xInput" style="rounded=0;whiteSpace=wrap;html=1;fontSize=10;align=center;verticalAlign=middle;" parent="1" vertex="1">
          <mxGeometry x="2120" y="503" width="30" height="10" as="geometry" />
        </mxCell>
        <mxCell id="j-WS8WipbD-k7poN21yg-44" value="xInput" style="rounded=0;whiteSpace=wrap;html=1;fontSize=10;align=center;verticalAlign=middle;" parent="1" vertex="1">
          <mxGeometry x="2220" y="503" width="30" height="10" as="geometry" />
        </mxCell>
        <mxCell id="j-WS8WipbD-k7poN21yg-45" value="!xInput" style="rounded=0;whiteSpace=wrap;html=1;fontSize=10;align=center;verticalAlign=middle;" parent="1" vertex="1">
          <mxGeometry x="2310" y="503" width="30" height="10" as="geometry" />
        </mxCell>
        <mxCell id="j-WS8WipbD-k7poN21yg-46" value="xInput&lt;br&gt;cInput" style="rounded=0;whiteSpace=wrap;html=1;fontSize=10;align=center;verticalAlign=middle;" parent="1" vertex="1">
          <mxGeometry x="2035" y="590" width="30" height="23" as="geometry" />
        </mxCell>
        <mxCell id="j-WS8WipbD-k7poN21yg-47" value="" style="endArrow=none;html=1;fontSize=10;entryX=0.5;entryY=0;entryDx=0;entryDy=0;exitX=0.25;exitY=1;exitDx=0;exitDy=0;" parent="1" source="j-WS8WipbD-k7poN21yg-25" target="j-WS8WipbD-k7poN21yg-46" edge="1">
          <mxGeometry x="2010" y="443" width="50" height="50" as="geometry">
            <mxPoint x="2050" y="570" as="sourcePoint" />
            <mxPoint x="2050" y="643" as="targetPoint" />
            <Array as="points" />
          </mxGeometry>
        </mxCell>
        <mxCell id="j-WS8WipbD-k7poN21yg-48" value="xInput" style="rounded=0;whiteSpace=wrap;html=1;fontSize=10;align=center;verticalAlign=middle;" parent="1" vertex="1">
          <mxGeometry x="2035" y="503" width="30" height="10" as="geometry" />
        </mxCell>
        <mxCell id="j-WS8WipbD-k7poN21yg-49" value="" style="endArrow=none;html=1;fontSize=10;exitX=0.25;exitY=1;exitDx=0;exitDy=0;entryX=0.5;entryY=0;entryDx=0;entryDy=0;" parent="1" source="j-WS8WipbD-k7poN21yg-21" target="j-WS8WipbD-k7poN21yg-48" edge="1">
          <mxGeometry x="2010" y="443" width="50" height="50" as="geometry">
            <mxPoint x="2050" y="496" as="sourcePoint" />
            <mxPoint x="2050" y="540" as="targetPoint" />
          </mxGeometry>
        </mxCell>
        <mxCell id="j-WS8WipbD-k7poN21yg-50" value="xInput&lt;br&gt;!cInput" style="rounded=0;whiteSpace=wrap;html=1;fontSize=10;align=center;verticalAlign=middle;" parent="1" vertex="1">
          <mxGeometry x="2073" y="600" width="34" height="23" as="geometry" />
        </mxCell>
        <mxCell id="j-WS8WipbD-k7poN21yg-51" value="" style="endArrow=none;html=1;fontSize=10;entryX=0.5;entryY=1;entryDx=0;entryDy=0;exitX=0.75;exitY=0;exitDx=0;exitDy=0;" parent="1" source="j-WS8WipbD-k7poN21yg-23" target="j-WS8WipbD-k7poN21yg-50" edge="1">
          <mxGeometry x="2010" y="443" width="50" height="50" as="geometry">
            <mxPoint x="2090" y="643" as="sourcePoint" />
            <mxPoint x="2090" y="570" as="targetPoint" />
            <Array as="points" />
          </mxGeometry>
        </mxCell>
        <mxCell id="j-WS8WipbD-k7poN21yg-52" value="!xInput" style="rounded=0;whiteSpace=wrap;html=1;fontSize=10;align=center;verticalAlign=middle;" parent="1" vertex="1">
          <mxGeometry x="2160" y="543" width="40" height="10" as="geometry" />
        </mxCell>
        <mxCell id="j-WS8WipbD-k7poN21yg-53" value="" style="endArrow=none;html=1;fontSize=10;exitX=1;exitY=0.25;exitDx=0;exitDy=0;entryX=0;entryY=0.5;entryDx=0;entryDy=0;" parent="1" source="j-WS8WipbD-k7poN21yg-25" target="j-WS8WipbD-k7poN21yg-52" edge="1">
          <mxGeometry x="2010" y="443" width="50" height="50" as="geometry">
            <mxPoint x="2110" y="547.5" as="sourcePoint" />
            <mxPoint x="2270" y="547.5" as="targetPoint" />
          </mxGeometry>
        </mxCell>
        <mxCell id="j-WS8WipbD-k7poN21yg-54" value="xInput" style="rounded=0;whiteSpace=wrap;html=1;fontSize=10;align=center;verticalAlign=middle;" parent="1" vertex="1">
          <mxGeometry x="2165" y="558" width="30" height="10" as="geometry" />
        </mxCell>
        <mxCell id="j-WS8WipbD-k7poN21yg-55" value="" style="endArrow=none;html=1;fontSize=10;exitX=0;exitY=0.75;exitDx=0;exitDy=0;entryX=1;entryY=0.5;entryDx=0;entryDy=0;" parent="1" source="j-WS8WipbD-k7poN21yg-26" target="j-WS8WipbD-k7poN21yg-54" edge="1">
          <mxGeometry x="2010" y="443" width="50" height="50" as="geometry">
            <mxPoint x="2270" y="562.5" as="sourcePoint" />
            <mxPoint x="2110" y="562.5" as="targetPoint" />
          </mxGeometry>
        </mxCell>
        <mxCell id="j-WS8WipbD-k7poN21yg-56" value="!xInput&lt;br&gt;cInput" style="rounded=0;whiteSpace=wrap;html=1;fontSize=10;align=center;verticalAlign=middle;" parent="1" vertex="1">
          <mxGeometry x="2275" y="591" width="30" height="30" as="geometry" />
        </mxCell>
        <mxCell id="j-WS8WipbD-k7poN21yg-57" value="" style="endArrow=none;html=1;fontSize=10;exitX=0.25;exitY=1;exitDx=0;exitDy=0;entryX=0.5;entryY=0;entryDx=0;entryDy=0;" parent="1" source="j-WS8WipbD-k7poN21yg-26" target="j-WS8WipbD-k7poN21yg-56" edge="1">
          <mxGeometry x="2010" y="443" width="50" height="50" as="geometry">
            <mxPoint x="2290" y="570" as="sourcePoint" />
            <mxPoint x="2290" y="643" as="targetPoint" />
            <Array as="points" />
          </mxGeometry>
        </mxCell>
        <mxCell id="j-WS8WipbD-k7poN21yg-58" value="!xInput&lt;br&gt;!cInput" style="rounded=0;whiteSpace=wrap;html=1;fontSize=10;align=center;verticalAlign=middle;" parent="1" vertex="1">
          <mxGeometry x="2315" y="591" width="30" height="30" as="geometry" />
        </mxCell>
        <mxCell id="j-WS8WipbD-k7poN21yg-59" value="" style="endArrow=none;html=1;fontSize=10;entryX=0.5;entryY=1;entryDx=0;entryDy=0;exitX=0.75;exitY=0;exitDx=0;exitDy=0;" parent="1" source="j-WS8WipbD-k7poN21yg-24" target="j-WS8WipbD-k7poN21yg-58" edge="1">
          <mxGeometry x="2010" y="443" width="50" height="50" as="geometry">
            <mxPoint x="2330" y="643" as="sourcePoint" />
            <mxPoint x="2330" y="570" as="targetPoint" />
            <Array as="points" />
          </mxGeometry>
        </mxCell>
        <mxCell id="j-WS8WipbD-k7poN21yg-60" value="!xInput&lt;br&gt;cInput" style="rounded=0;whiteSpace=wrap;html=1;fontSize=10;align=center;verticalAlign=middle;" parent="1" vertex="1">
          <mxGeometry x="2120" y="643" width="45" height="23" as="geometry" />
        </mxCell>
        <mxCell id="j-WS8WipbD-k7poN21yg-61" value="" style="endArrow=none;html=1;fontSize=10;exitX=1;exitY=0.25;exitDx=0;exitDy=0;entryX=0;entryY=0.5;entryDx=0;entryDy=0;" parent="1" source="j-WS8WipbD-k7poN21yg-23" target="j-WS8WipbD-k7poN21yg-60" edge="1">
          <mxGeometry x="2010" y="443" width="50" height="50" as="geometry">
            <mxPoint x="2110" y="650.5" as="sourcePoint" />
            <mxPoint x="2270" y="650.5" as="targetPoint" />
          </mxGeometry>
        </mxCell>
        <mxCell id="j-WS8WipbD-k7poN21yg-62" value="xInput&lt;br&gt;!cInput" style="rounded=0;whiteSpace=wrap;html=1;fontSize=10;align=center;verticalAlign=middle;" parent="1" vertex="1">
          <mxGeometry x="2205" y="667" width="45" height="23" as="geometry" />
        </mxCell>
        <mxCell id="j-WS8WipbD-k7poN21yg-63" value="" style="endArrow=none;html=1;fontSize=10;exitX=0;exitY=0.75;exitDx=0;exitDy=0;entryX=1;entryY=0.5;entryDx=0;entryDy=0;" parent="1" source="j-WS8WipbD-k7poN21yg-24" target="j-WS8WipbD-k7poN21yg-62" edge="1">
          <mxGeometry x="2010" y="443" width="50" height="50" as="geometry">
            <mxPoint x="2270" y="678.2500000000001" as="sourcePoint" />
            <mxPoint x="2110" y="678.2500000000001" as="targetPoint" />
          </mxGeometry>
        </mxCell>
        <mxCell id="j-WS8WipbD-k7poN21yg-64" value="&lt;div style=&quot;font-size: 15px;&quot;&gt;&lt;b style=&quot;font-size: 15px;&quot;&gt;Ability State&lt;/b&gt;&lt;/div&gt;" style="rounded=0;whiteSpace=wrap;html=1;align=left;fillColor=#fff2cc;strokeColor=#d6b656;verticalAlign=top;fontSize=15;" parent="1" vertex="1">
          <mxGeometry x="2440" y="190" width="501" height="200" as="geometry" />
        </mxCell>
        <mxCell id="j-WS8WipbD-k7poN21yg-65" value="Primary Attack State" style="rounded=1;whiteSpace=wrap;html=1;fillColor=#dae8fc;strokeColor=#6c8ebf;arcSize=23;" parent="1" vertex="1">
          <mxGeometry x="2451" y="288" width="80" height="30" as="geometry" />
        </mxCell>
        <mxCell id="j-WS8WipbD-k7poN21yg-66" value="Secondary Attack Stater" style="rounded=1;whiteSpace=wrap;html=1;fillColor=#dae8fc;strokeColor=#6c8ebf;arcSize=23;" parent="1" vertex="1">
          <mxGeometry x="2532" y="350" width="80" height="28" as="geometry" />
        </mxCell>
        <mxCell id="j-WS8WipbD-k7poN21yg-67" value="Jump State" style="rounded=1;whiteSpace=wrap;html=1;fillColor=#dae8fc;strokeColor=#6c8ebf;arcSize=23;" parent="1" vertex="1">
          <mxGeometry x="2691" y="348" width="80" height="30" as="geometry" />
        </mxCell>
        <mxCell id="j-WS8WipbD-k7poN21yg-68" value="Wall Jump State" style="rounded=1;whiteSpace=wrap;html=1;fillColor=#dae8fc;strokeColor=#6c8ebf;arcSize=23;" parent="1" vertex="1">
          <mxGeometry x="2771" y="288" width="90" height="30" as="geometry" />
        </mxCell>
        <mxCell id="j-WS8WipbD-k7poN21yg-69" value="Input Handler" style="shape=offPageConnector;whiteSpace=wrap;html=1;rotation=90;horizontal=0;verticalAlign=middle;direction=south;fillColor=#e1d5e7;strokeColor=#9673a6;" parent="1" vertex="1">
          <mxGeometry x="2667.88" y="116.88" width="45.25" height="60" as="geometry" />
        </mxCell>
        <mxCell id="j-WS8WipbD-k7poN21yg-70" value="" style="endArrow=classic;html=1;exitX=0.5;exitY=0;exitDx=0;exitDy=0;entryX=0.5;entryY=0;entryDx=0;entryDy=0;" parent="1" source="j-WS8WipbD-k7poN21yg-69" target="j-WS8WipbD-k7poN21yg-64" edge="1">
          <mxGeometry x="2440" y="100" width="50" height="50" as="geometry">
            <mxPoint x="2650" y="200" as="sourcePoint" />
            <mxPoint x="2700" y="150" as="targetPoint" />
          </mxGeometry>
        </mxCell>
        <mxCell id="j-WS8WipbD-k7poN21yg-71" value="" style="endArrow=classic;html=1;exitX=0.5;exitY=0;exitDx=0;exitDy=0;entryX=0.478;entryY=0.047;entryDx=0;entryDy=0;edgeStyle=orthogonalEdgeStyle;elbow=vertical;entryPerimeter=0;" parent="1" source="j-WS8WipbD-k7poN21yg-64" target="j-WS8WipbD-k7poN21yg-66" edge="1">
          <mxGeometry x="2440" y="100" width="50" height="50" as="geometry">
            <mxPoint x="2700.5" y="200" as="sourcePoint" />
            <mxPoint x="2501" y="298" as="targetPoint" />
            <Array as="points">
              <mxPoint x="2691" y="230" />
              <mxPoint x="2570" y="230" />
              <mxPoint x="2570" y="351" />
            </Array>
          </mxGeometry>
        </mxCell>
        <mxCell id="j-WS8WipbD-k7poN21yg-72" value="" style="endArrow=classic;html=1;exitX=0.5;exitY=0;exitDx=0;exitDy=0;entryX=0.5;entryY=0;entryDx=0;entryDy=0;edgeStyle=orthogonalEdgeStyle;elbow=vertical;startArrow=none;" parent="1" source="j-WS8WipbD-k7poN21yg-64" target="j-WS8WipbD-k7poN21yg-65" edge="1">
          <mxGeometry x="2440" y="100" width="50" height="50" as="geometry">
            <mxPoint x="2700.5" y="200" as="sourcePoint" />
            <mxPoint x="2581" y="358" as="targetPoint" />
            <Array as="points">
              <mxPoint x="2690" y="230" />
              <mxPoint x="2491" y="230" />
            </Array>
          </mxGeometry>
        </mxCell>
        <mxCell id="j-WS8WipbD-k7poN21yg-73" value="" style="endArrow=classic;html=1;exitX=0.5;exitY=0;exitDx=0;exitDy=0;entryX=0.5;entryY=0;entryDx=0;entryDy=0;edgeStyle=orthogonalEdgeStyle;elbow=vertical;" parent="1" source="j-WS8WipbD-k7poN21yg-64" target="j-WS8WipbD-k7poN21yg-67" edge="1">
          <mxGeometry x="2440" y="100" width="50" height="50" as="geometry">
            <mxPoint x="2720.5" y="220" as="sourcePoint" />
            <mxPoint x="2601" y="378" as="targetPoint" />
            <Array as="points">
              <mxPoint x="2690" y="230" />
              <mxPoint x="2731" y="230" />
            </Array>
          </mxGeometry>
        </mxCell>
        <mxCell id="j-WS8WipbD-k7poN21yg-74" value="" style="endArrow=classic;html=1;entryX=0.5;entryY=0;entryDx=0;entryDy=0;edgeStyle=orthogonalEdgeStyle;elbow=vertical;" parent="1" target="j-WS8WipbD-k7poN21yg-68" edge="1">
          <mxGeometry x="2440" y="100" width="50" height="50" as="geometry">
            <mxPoint x="2690" y="190" as="sourcePoint" />
            <mxPoint x="2741" y="358" as="targetPoint" />
            <Array as="points">
              <mxPoint x="2690" y="230" />
              <mxPoint x="2816" y="230" />
            </Array>
          </mxGeometry>
        </mxCell>
        <mxCell id="j-WS8WipbD-k7poN21yg-75" value="Prim Input" style="rounded=0;whiteSpace=wrap;html=1;verticalAlign=middle;fontSize=10;" parent="1" vertex="1">
          <mxGeometry x="2463.63" y="240" width="54.75" height="20" as="geometry" />
        </mxCell>
        <mxCell id="j-WS8WipbD-k7poN21yg-76" value="Sec Input" style="rounded=0;whiteSpace=wrap;html=1;verticalAlign=middle;fontSize=10;" parent="1" vertex="1">
          <mxGeometry x="2543.63" y="268" width="54.75" height="20" as="geometry" />
        </mxCell>
        <mxCell id="j-WS8WipbD-k7poN21yg-77" value="JumpInput&lt;br&gt;Can Jump" style="rounded=0;whiteSpace=wrap;html=1;verticalAlign=middle;fontSize=10;align=center;" parent="1" vertex="1">
          <mxGeometry x="2703.63" y="268" width="54.75" height="32" as="geometry" />
        </mxCell>
        <mxCell id="j-WS8WipbD-k7poN21yg-78" value="Jump Input&lt;br&gt;isTouchinWall" style="rounded=0;whiteSpace=wrap;html=1;verticalAlign=middle;fontSize=10;" parent="1" vertex="1">
          <mxGeometry x="2785.31" y="244" width="61.38" height="28" as="geometry" />
        </mxCell>
        <mxCell id="j-WS8WipbD-k7poN21yg-79" value="Wall Grab State" style="rounded=1;whiteSpace=wrap;html=1;fontSize=12;align=center;verticalAlign=middle;fillColor=#d5e8d4;strokeColor=#82b366;fontStyle=0" parent="1" vertex="1">
          <mxGeometry x="2630.5" y="825" width="120" height="40" as="geometry" />
        </mxCell>
        <mxCell id="j-WS8WipbD-k7poN21yg-80" value="Wall Climb State" style="rounded=1;whiteSpace=wrap;html=1;fontSize=12;align=center;verticalAlign=middle;fillColor=#d5e8d4;strokeColor=#82b366;fontStyle=0" parent="1" vertex="1">
          <mxGeometry x="2630.51" y="940" width="120" height="40" as="geometry" />
        </mxCell>
        <mxCell id="j-WS8WipbD-k7poN21yg-81" value="!yInput&lt;br&gt;antiGrav" style="rounded=0;whiteSpace=wrap;html=1;fontSize=10;align=center;verticalAlign=middle;" parent="1" vertex="1">
          <mxGeometry x="2703.63" y="890" width="45" height="25" as="geometry" />
        </mxCell>
        <mxCell id="j-WS8WipbD-k7poN21yg-82" value="pos&lt;br&gt;yInput" style="rounded=0;whiteSpace=wrap;html=1;fontSize=10;align=center;verticalAlign=middle;" parent="1" vertex="1">
          <mxGeometry x="2633.38" y="890" width="45" height="25" as="geometry" />
        </mxCell>
        <mxCell id="j-WS8WipbD-k7poN21yg-83" value="groundDetected&lt;br&gt;yVel &amp;gt; thresh" style="endArrow=classic;html=1;fontSize=10;startArrow=none;exitX=0.25;exitY=0;exitDx=0;exitDy=0;entryX=0.75;entryY=0;entryDx=0;entryDy=0;labelBorderColor=#000000;" parent="1" source="j-WS8WipbD-k7poN21yg-6" target="j-WS8WipbD-k7poN21yg-21" edge="1">
          <mxGeometry x="1970" y="30" width="50" height="50" as="geometry">
            <mxPoint x="2660" y="540" as="sourcePoint" />
            <mxPoint x="2260" y="410" as="targetPoint" />
            <Array as="points">
              <mxPoint x="2661" y="400" />
              <mxPoint x="2090" y="400" />
            </Array>
            <mxPoint x="-5" y="-105" as="offset" />
          </mxGeometry>
        </mxCell>
        <mxCell id="j-WS8WipbD-k7poN21yg-84" value="" style="endArrow=none;html=1;exitX=0.801;exitY=0;exitDx=0;exitDy=0;entryX=0.5;entryY=1;entryDx=0;entryDy=0;exitPerimeter=0;" parent="1" source="j-WS8WipbD-k7poN21yg-80" target="j-WS8WipbD-k7poN21yg-81" edge="1">
          <mxGeometry width="50" height="50" relative="1" as="geometry">
            <mxPoint x="2670" y="870" as="sourcePoint" />
            <mxPoint x="2720" y="914" as="targetPoint" />
          </mxGeometry>
        </mxCell>
        <mxCell id="j-WS8WipbD-k7poN21yg-85" value="" style="endArrow=classic;html=1;exitX=0.5;exitY=0;exitDx=0;exitDy=0;entryX=0.798;entryY=1.005;entryDx=0;entryDy=0;entryPerimeter=0;" parent="1" source="j-WS8WipbD-k7poN21yg-81" target="j-WS8WipbD-k7poN21yg-79" edge="1">
          <mxGeometry width="50" height="50" relative="1" as="geometry">
            <mxPoint x="2670" y="870" as="sourcePoint" />
            <mxPoint x="2720" y="820" as="targetPoint" />
          </mxGeometry>
        </mxCell>
        <mxCell id="j-WS8WipbD-k7poN21yg-86" value="" style="endArrow=none;html=1;" parent="1" edge="1">
          <mxGeometry width="50" height="50" relative="1" as="geometry">
            <mxPoint x="2655" y="892" as="sourcePoint" />
            <mxPoint x="2655" y="865" as="targetPoint" />
          </mxGeometry>
        </mxCell>
        <mxCell id="j-WS8WipbD-k7poN21yg-87" value="" style="endArrow=classic;html=1;exitX=0.5;exitY=1;exitDx=0;exitDy=0;entryX=0.217;entryY=0;entryDx=0;entryDy=0;entryPerimeter=0;" parent="1" source="j-WS8WipbD-k7poN21yg-82" target="j-WS8WipbD-k7poN21yg-80" edge="1">
          <mxGeometry width="50" height="50" relative="1" as="geometry">
            <mxPoint x="2670" y="870" as="sourcePoint" />
            <mxPoint x="2720" y="820" as="targetPoint" />
          </mxGeometry>
        </mxCell>
        <mxCell id="bRhuMi0I_HP2yc-rfD6Y-219" value="isTouchingWall&lt;br&gt;xInput at wall&lt;br&gt;yVel &amp;lt; 0" style="endArrow=classic;html=1;fontSize=10;exitX=0.5;exitY=1;exitDx=0;exitDy=0;entryX=0.5;entryY=0;entryDx=0;entryDy=0;startArrow=none;labelBorderColor=#000000;" parent="1" source="bRhuMi0I_HP2yc-rfD6Y-194" target="bRhuMi0I_HP2yc-rfD6Y-202" edge="1">
          <mxGeometry x="817" y="159.5" width="50" height="50" as="geometry">
            <mxPoint x="997" y="640" as="sourcePoint" />
            <mxPoint x="1137" y="669.5" as="targetPoint" />
            <Array as="points">
              <mxPoint x="988" y="720" />
              <mxPoint x="1157" y="720" />
            </Array>
          </mxGeometry>
        </mxCell>
        <mxCell id="bRhuMi0I_HP2yc-rfD6Y-221" value="isTouchingWall&lt;br&gt;grabInput" style="endArrow=classic;html=1;fontSize=10;exitX=0.5;exitY=1;exitDx=0;exitDy=0;entryX=0.5;entryY=0;entryDx=0;entryDy=0;startArrow=none;labelBorderColor=#000000;" parent="1" source="bRhuMi0I_HP2yc-rfD6Y-194" target="bRhuMi0I_HP2yc-rfD6Y-197" edge="1">
          <mxGeometry x="727" y="199.5" width="50" height="50" as="geometry">
            <mxPoint x="907" y="680" as="sourcePoint" />
            <mxPoint x="1047" y="709.5" as="targetPoint" />
            <Array as="points">
              <mxPoint x="988" y="720" />
              <mxPoint x="846" y="720" />
            </Array>
          </mxGeometry>
        </mxCell>
        <mxCell id="RlBXYaPrdydc813VVPI1-7" value="PowerSelected == 1&lt;br&gt;Shoots != 0&lt;br&gt;CanShoot" style="edgeStyle=orthogonalEdgeStyle;rounded=0;orthogonalLoop=1;jettySize=auto;html=1;entryX=0.5;entryY=0;entryDx=0;entryDy=0;align=center;" edge="1" parent="1" source="RlBXYaPrdydc813VVPI1-1" target="RlBXYaPrdydc813VVPI1-2">
          <mxGeometry x="0.55" relative="1" as="geometry">
            <mxPoint as="offset" />
          </mxGeometry>
        </mxCell>
        <mxCell id="RlBXYaPrdydc813VVPI1-8" value="&lt;span style=&quot;color: rgb(0, 0, 0); font-family: helvetica; font-size: 11px; font-style: normal; font-weight: 400; letter-spacing: normal; text-indent: 0px; text-transform: none; word-spacing: 0px; background-color: rgb(255, 255, 255); display: inline; float: none;&quot;&gt;PowerSelected == 2&lt;/span&gt;&lt;br style=&quot;color: rgb(0, 0, 0); font-family: helvetica; font-size: 11px; font-style: normal; font-weight: 400; letter-spacing: normal; text-indent: 0px; text-transform: none; word-spacing: 0px;&quot;&gt;&lt;span style=&quot;color: rgb(0, 0, 0); font-family: helvetica; font-size: 11px; font-style: normal; font-weight: 400; letter-spacing: normal; text-indent: 0px; text-transform: none; word-spacing: 0px; background-color: rgb(255, 255, 255); display: inline; float: none;&quot;&gt;Shoots != 0&lt;/span&gt;&lt;br style=&quot;color: rgb(0, 0, 0); font-family: helvetica; font-size: 11px; font-style: normal; font-weight: 400; letter-spacing: normal; text-indent: 0px; text-transform: none; word-spacing: 0px;&quot;&gt;&lt;span style=&quot;color: rgb(0, 0, 0); font-family: helvetica; font-size: 11px; font-style: normal; font-weight: 400; letter-spacing: normal; text-indent: 0px; text-transform: none; word-spacing: 0px; background-color: rgb(255, 255, 255); display: inline; float: none;&quot;&gt;CanShoot&lt;/span&gt;" style="edgeStyle=orthogonalEdgeStyle;rounded=0;orthogonalLoop=1;jettySize=auto;html=1;align=center;" edge="1" parent="1" source="RlBXYaPrdydc813VVPI1-1" target="RlBXYaPrdydc813VVPI1-3">
          <mxGeometry x="0.3333" relative="1" as="geometry">
            <mxPoint as="offset" />
          </mxGeometry>
        </mxCell>
        <mxCell id="RlBXYaPrdydc813VVPI1-9" style="edgeStyle=orthogonalEdgeStyle;rounded=0;orthogonalLoop=1;jettySize=auto;html=1;align=center;" edge="1" parent="1" source="RlBXYaPrdydc813VVPI1-1" target="RlBXYaPrdydc813VVPI1-4">
          <mxGeometry relative="1" as="geometry" />
        </mxCell>
        <mxCell id="RlBXYaPrdydc813VVPI1-10" style="edgeStyle=orthogonalEdgeStyle;rounded=0;orthogonalLoop=1;jettySize=auto;html=1;align=center;" edge="1" parent="1" source="RlBXYaPrdydc813VVPI1-1" target="RlBXYaPrdydc813VVPI1-5">
          <mxGeometry relative="1" as="geometry" />
        </mxCell>
        <mxCell id="RlBXYaPrdydc813VVPI1-11" style="edgeStyle=orthogonalEdgeStyle;rounded=0;orthogonalLoop=1;jettySize=auto;html=1;align=center;" edge="1" parent="1" source="RlBXYaPrdydc813VVPI1-1" target="RlBXYaPrdydc813VVPI1-6">
          <mxGeometry relative="1" as="geometry" />
        </mxCell>
        <mxCell id="RlBXYaPrdydc813VVPI1-1" value="Primary attack" style="rounded=1;whiteSpace=wrap;html=1;align=center;" vertex="1" parent="1">
          <mxGeometry x="3680" y="104" width="120" height="60" as="geometry" />
        </mxCell>
        <mxCell id="RlBXYaPrdydc813VVPI1-2" value="Power 1" style="rounded=1;whiteSpace=wrap;html=1;align=center;" vertex="1" parent="1">
          <mxGeometry x="3370" y="284" width="120" height="60" as="geometry" />
        </mxCell>
        <mxCell id="RlBXYaPrdydc813VVPI1-3" value="Power 2" style="rounded=1;whiteSpace=wrap;html=1;align=center;" vertex="1" parent="1">
          <mxGeometry x="3530" y="284" width="120" height="60" as="geometry" />
        </mxCell>
        <mxCell id="RlBXYaPrdydc813VVPI1-4" value="Power 3" style="rounded=1;whiteSpace=wrap;html=1;align=center;" vertex="1" parent="1">
          <mxGeometry x="3680" y="288" width="120" height="60" as="geometry" />
        </mxCell>
        <mxCell id="RlBXYaPrdydc813VVPI1-5" value="Power 4" style="rounded=1;whiteSpace=wrap;html=1;align=center;" vertex="1" parent="1">
          <mxGeometry x="3830" y="288" width="120" height="60" as="geometry" />
        </mxCell>
        <mxCell id="RlBXYaPrdydc813VVPI1-6" value="Power 5" style="rounded=1;whiteSpace=wrap;html=1;align=center;" vertex="1" parent="1">
          <mxGeometry x="4000" y="288" width="120" height="60" as="geometry" />
        </mxCell>
      </root>
    </mxGraphModel>
  </diagram>
  <diagram id="95M-BcWhQB1j4nI4Y1Bj" name="Enemy State Machine">
    <mxGraphModel dx="1422" dy="772" grid="1" gridSize="10" guides="1" tooltips="1" connect="1" arrows="1" fold="1" page="1" pageScale="1" pageWidth="1169" pageHeight="827" math="0" shadow="0">
      <root>
        <mxCell id="kk_E4QNAolXVfXmNKqv7-0" />
        <mxCell id="kk_E4QNAolXVfXmNKqv7-1" parent="kk_E4QNAolXVfXmNKqv7-0" />
      </root>
    </mxGraphModel>
  </diagram>
  <diagram id="m2k6sihsEzIXrnShLUDr" name="Refactoring">
    <mxGraphModel dx="1422" dy="772" grid="1" gridSize="10" guides="1" tooltips="1" connect="1" arrows="1" fold="1" page="1" pageScale="1" pageWidth="827" pageHeight="1169" math="0" shadow="0">
      <root>
        <mxCell id="W9KHT9lgfr-KfD5j6V1n-0" />
        <mxCell id="W9KHT9lgfr-KfD5j6V1n-1" parent="W9KHT9lgfr-KfD5j6V1n-0" />
        <mxCell id="W9KHT9lgfr-KfD5j6V1n-12" style="edgeStyle=orthogonalEdgeStyle;rounded=0;orthogonalLoop=1;jettySize=auto;html=1;entryX=0;entryY=0.5;entryDx=0;entryDy=0;" parent="W9KHT9lgfr-KfD5j6V1n-1" source="W9KHT9lgfr-KfD5j6V1n-2" target="W9KHT9lgfr-KfD5j6V1n-5" edge="1">
          <mxGeometry relative="1" as="geometry" />
        </mxCell>
        <mxCell id="W9KHT9lgfr-KfD5j6V1n-2" value="Enemys" style="rounded=1;whiteSpace=wrap;html=1;fillColor=#d5e8d4;strokeColor=#82b366;" parent="W9KHT9lgfr-KfD5j6V1n-1" vertex="1">
          <mxGeometry x="80" y="100" width="120" height="60" as="geometry" />
        </mxCell>
        <mxCell id="W9KHT9lgfr-KfD5j6V1n-13" style="edgeStyle=orthogonalEdgeStyle;rounded=0;orthogonalLoop=1;jettySize=auto;html=1;entryX=0;entryY=0.5;entryDx=0;entryDy=0;" parent="W9KHT9lgfr-KfD5j6V1n-1" source="W9KHT9lgfr-KfD5j6V1n-3" target="W9KHT9lgfr-KfD5j6V1n-5" edge="1">
          <mxGeometry relative="1" as="geometry" />
        </mxCell>
        <mxCell id="W9KHT9lgfr-KfD5j6V1n-3" value="Player" style="rounded=1;whiteSpace=wrap;html=1;fillColor=#d5e8d4;strokeColor=#82b366;" parent="W9KHT9lgfr-KfD5j6V1n-1" vertex="1">
          <mxGeometry x="80" y="200" width="120" height="60" as="geometry" />
        </mxCell>
        <mxCell id="W9KHT9lgfr-KfD5j6V1n-14" style="edgeStyle=orthogonalEdgeStyle;rounded=0;orthogonalLoop=1;jettySize=auto;html=1;entryX=0;entryY=0.5;entryDx=0;entryDy=0;" parent="W9KHT9lgfr-KfD5j6V1n-1" source="W9KHT9lgfr-KfD5j6V1n-4" target="W9KHT9lgfr-KfD5j6V1n-5" edge="1">
          <mxGeometry relative="1" as="geometry" />
        </mxCell>
        <mxCell id="W9KHT9lgfr-KfD5j6V1n-4" value="NPCs" style="rounded=1;whiteSpace=wrap;html=1;fillColor=#d5e8d4;strokeColor=#82b366;" parent="W9KHT9lgfr-KfD5j6V1n-1" vertex="1">
          <mxGeometry x="80" y="320" width="120" height="60" as="geometry" />
        </mxCell>
        <mxCell id="W9KHT9lgfr-KfD5j6V1n-15" style="edgeStyle=orthogonalEdgeStyle;rounded=0;orthogonalLoop=1;jettySize=auto;html=1;entryX=0;entryY=0.5;entryDx=0;entryDy=0;" parent="W9KHT9lgfr-KfD5j6V1n-1" source="W9KHT9lgfr-KfD5j6V1n-5" target="W9KHT9lgfr-KfD5j6V1n-6" edge="1">
          <mxGeometry relative="1" as="geometry" />
        </mxCell>
        <mxCell id="W9KHT9lgfr-KfD5j6V1n-16" style="edgeStyle=orthogonalEdgeStyle;rounded=0;orthogonalLoop=1;jettySize=auto;html=1;entryX=0;entryY=0.5;entryDx=0;entryDy=0;" parent="W9KHT9lgfr-KfD5j6V1n-1" source="W9KHT9lgfr-KfD5j6V1n-5" target="W9KHT9lgfr-KfD5j6V1n-7" edge="1">
          <mxGeometry relative="1" as="geometry" />
        </mxCell>
        <mxCell id="W9KHT9lgfr-KfD5j6V1n-17" style="edgeStyle=orthogonalEdgeStyle;rounded=0;orthogonalLoop=1;jettySize=auto;html=1;entryX=0;entryY=0.5;entryDx=0;entryDy=0;" parent="W9KHT9lgfr-KfD5j6V1n-1" source="W9KHT9lgfr-KfD5j6V1n-5" target="W9KHT9lgfr-KfD5j6V1n-8" edge="1">
          <mxGeometry relative="1" as="geometry" />
        </mxCell>
        <mxCell id="W9KHT9lgfr-KfD5j6V1n-18" style="edgeStyle=orthogonalEdgeStyle;rounded=0;orthogonalLoop=1;jettySize=auto;html=1;entryX=0;entryY=0.5;entryDx=0;entryDy=0;" parent="W9KHT9lgfr-KfD5j6V1n-1" source="W9KHT9lgfr-KfD5j6V1n-5" target="W9KHT9lgfr-KfD5j6V1n-10" edge="1">
          <mxGeometry relative="1" as="geometry" />
        </mxCell>
        <mxCell id="W9KHT9lgfr-KfD5j6V1n-19" style="edgeStyle=orthogonalEdgeStyle;rounded=0;orthogonalLoop=1;jettySize=auto;html=1;entryX=0;entryY=0.5;entryDx=0;entryDy=0;" parent="W9KHT9lgfr-KfD5j6V1n-1" source="W9KHT9lgfr-KfD5j6V1n-5" target="W9KHT9lgfr-KfD5j6V1n-9" edge="1">
          <mxGeometry relative="1" as="geometry" />
        </mxCell>
        <mxCell id="W9KHT9lgfr-KfD5j6V1n-20" style="edgeStyle=orthogonalEdgeStyle;rounded=0;orthogonalLoop=1;jettySize=auto;html=1;entryX=0;entryY=0.5;entryDx=0;entryDy=0;" parent="W9KHT9lgfr-KfD5j6V1n-1" source="W9KHT9lgfr-KfD5j6V1n-5" target="W9KHT9lgfr-KfD5j6V1n-11" edge="1">
          <mxGeometry relative="1" as="geometry" />
        </mxCell>
        <mxCell id="W9KHT9lgfr-KfD5j6V1n-5" value="Core" style="rounded=1;whiteSpace=wrap;html=1;fillColor=#dae8fc;strokeColor=#6c8ebf;" parent="W9KHT9lgfr-KfD5j6V1n-1" vertex="1">
          <mxGeometry x="320" y="200" width="120" height="60" as="geometry" />
        </mxCell>
        <mxCell id="W9KHT9lgfr-KfD5j6V1n-6" value="Movement" style="rounded=1;whiteSpace=wrap;html=1;fillColor=#dae8fc;strokeColor=#6c8ebf;" parent="W9KHT9lgfr-KfD5j6V1n-1" vertex="1">
          <mxGeometry x="520" y="40" width="120" height="60" as="geometry" />
        </mxCell>
        <mxCell id="W9KHT9lgfr-KfD5j6V1n-7" value="Collision Senses" style="rounded=1;whiteSpace=wrap;html=1;fillColor=#dae8fc;strokeColor=#6c8ebf;" parent="W9KHT9lgfr-KfD5j6V1n-1" vertex="1">
          <mxGeometry x="520" y="120" width="120" height="60" as="geometry" />
        </mxCell>
        <mxCell id="W9KHT9lgfr-KfD5j6V1n-8" value="Combat" style="rounded=1;whiteSpace=wrap;html=1;fillColor=#dae8fc;strokeColor=#6c8ebf;" parent="W9KHT9lgfr-KfD5j6V1n-1" vertex="1">
          <mxGeometry x="520" y="200" width="120" height="60" as="geometry" />
        </mxCell>
        <mxCell id="W9KHT9lgfr-KfD5j6V1n-9" value="ParticleManager" style="rounded=1;whiteSpace=wrap;html=1;fillColor=#dae8fc;strokeColor=#6c8ebf;" parent="W9KHT9lgfr-KfD5j6V1n-1" vertex="1">
          <mxGeometry x="520" y="360" width="120" height="60" as="geometry" />
        </mxCell>
        <mxCell id="W9KHT9lgfr-KfD5j6V1n-10" value="Stats" style="rounded=1;whiteSpace=wrap;html=1;fillColor=#dae8fc;strokeColor=#6c8ebf;" parent="W9KHT9lgfr-KfD5j6V1n-1" vertex="1">
          <mxGeometry x="520" y="280" width="120" height="60" as="geometry" />
        </mxCell>
        <mxCell id="W9KHT9lgfr-KfD5j6V1n-11" value="Death" style="rounded=1;whiteSpace=wrap;html=1;fillColor=#dae8fc;strokeColor=#6c8ebf;" parent="W9KHT9lgfr-KfD5j6V1n-1" vertex="1">
          <mxGeometry x="520" y="440" width="120" height="60" as="geometry" />
        </mxCell>
      </root>
    </mxGraphModel>
  </diagram>
  <diagram id="TIxqTzYEZc6LbFz43dOP" name="PlayerMultiWeaponAttackState">
    <mxGraphModel dx="1422" dy="772" grid="1" gridSize="10" guides="1" tooltips="1" connect="1" arrows="1" fold="1" page="1" pageScale="1" pageWidth="827" pageHeight="1169" math="0" shadow="0">
      <root>
        <mxCell id="NZvUgJbAu9sYAaYP38OW-0" />
        <mxCell id="NZvUgJbAu9sYAaYP38OW-1" parent="NZvUgJbAu9sYAaYP38OW-0" />
        <mxCell id="NZvUgJbAu9sYAaYP38OW-2" value="Attack State" style="rounded=1;whiteSpace=wrap;html=1;fillColor=#dae8fc;strokeColor=#6c8ebf;" parent="NZvUgJbAu9sYAaYP38OW-1" vertex="1">
          <mxGeometry x="240" y="40" width="120" height="60" as="geometry" />
        </mxCell>
        <mxCell id="NZvUgJbAu9sYAaYP38OW-3" value="Enter" style="rounded=0;whiteSpace=wrap;html=1;fillColor=#e1d5e7;strokeColor=#9673a6;" parent="NZvUgJbAu9sYAaYP38OW-1" vertex="1">
          <mxGeometry x="40" y="160" width="120" height="60" as="geometry" />
        </mxCell>
        <mxCell id="NZvUgJbAu9sYAaYP38OW-4" value="Exit" style="rounded=0;whiteSpace=wrap;html=1;fillColor=#e1d5e7;strokeColor=#9673a6;" parent="NZvUgJbAu9sYAaYP38OW-1" vertex="1">
          <mxGeometry x="240" y="160" width="120" height="60" as="geometry" />
        </mxCell>
        <mxCell id="NZvUgJbAu9sYAaYP38OW-5" value="LogicUpdate" style="rounded=0;whiteSpace=wrap;html=1;fillColor=#e1d5e7;strokeColor=#9673a6;" parent="NZvUgJbAu9sYAaYP38OW-1" vertex="1">
          <mxGeometry x="440" y="160" width="120" height="60" as="geometry" />
        </mxCell>
        <mxCell id="NZvUgJbAu9sYAaYP38OW-6" value="WeaponEnter" style="rounded=0;whiteSpace=wrap;html=1;fillColor=#e1d5e7;strokeColor=#9673a6;" parent="NZvUgJbAu9sYAaYP38OW-1" vertex="1">
          <mxGeometry x="40" y="320" width="120" height="60" as="geometry" />
        </mxCell>
        <mxCell id="NZvUgJbAu9sYAaYP38OW-7" value="WeaponExit" style="rounded=0;whiteSpace=wrap;html=1;fillColor=#e1d5e7;strokeColor=#9673a6;" parent="NZvUgJbAu9sYAaYP38OW-1" vertex="1">
          <mxGeometry x="240" y="320" width="120" height="60" as="geometry" />
        </mxCell>
        <mxCell id="NZvUgJbAu9sYAaYP38OW-8" value="WeaponLogicUpdate" style="rounded=0;whiteSpace=wrap;html=1;fillColor=#e1d5e7;strokeColor=#9673a6;" parent="NZvUgJbAu9sYAaYP38OW-1" vertex="1">
          <mxGeometry x="440" y="320" width="120" height="60" as="geometry" />
        </mxCell>
        <mxCell id="NZvUgJbAu9sYAaYP38OW-9" value="Weapon" style="rounded=1;whiteSpace=wrap;html=1;fillColor=#dae8fc;strokeColor=#6c8ebf;" parent="NZvUgJbAu9sYAaYP38OW-1" vertex="1">
          <mxGeometry x="240" y="440" width="120" height="60" as="geometry" />
        </mxCell>
        <mxCell id="NZvUgJbAu9sYAaYP38OW-10" value="Defensive Weapon" style="rounded=1;whiteSpace=wrap;html=1;fillColor=#dae8fc;strokeColor=#6c8ebf;" parent="NZvUgJbAu9sYAaYP38OW-1" vertex="1">
          <mxGeometry x="40" y="560" width="120" height="60" as="geometry" />
        </mxCell>
        <mxCell id="NZvUgJbAu9sYAaYP38OW-11" value="Aggresive Weapon" style="rounded=1;whiteSpace=wrap;html=1;fillColor=#dae8fc;strokeColor=#6c8ebf;" parent="NZvUgJbAu9sYAaYP38OW-1" vertex="1">
          <mxGeometry x="440" y="560" width="120" height="60" as="geometry" />
        </mxCell>
        <mxCell id="NZvUgJbAu9sYAaYP38OW-12" value="Hold Weapon" style="rounded=1;whiteSpace=wrap;html=1;fillColor=#dae8fc;strokeColor=#6c8ebf;" parent="NZvUgJbAu9sYAaYP38OW-1" vertex="1">
          <mxGeometry x="240" y="680" width="120" height="60" as="geometry" />
        </mxCell>
        <mxCell id="NZvUgJbAu9sYAaYP38OW-13" value="Click Weapon" style="rounded=1;whiteSpace=wrap;html=1;fillColor=#dae8fc;strokeColor=#6c8ebf;" parent="NZvUgJbAu9sYAaYP38OW-1" vertex="1">
          <mxGeometry x="640" y="680" width="120" height="60" as="geometry" />
        </mxCell>
        <mxCell id="NZvUgJbAu9sYAaYP38OW-16" value="Draw Weapon" style="rounded=1;whiteSpace=wrap;html=1;fillColor=#dae8fc;strokeColor=#6c8ebf;" parent="NZvUgJbAu9sYAaYP38OW-1" vertex="1">
          <mxGeometry x="40" y="840" width="120" height="60" as="geometry" />
        </mxCell>
        <mxCell id="NZvUgJbAu9sYAaYP38OW-17" value="Charge Weapon" style="rounded=1;whiteSpace=wrap;html=1;fillColor=#dae8fc;strokeColor=#6c8ebf;" parent="NZvUgJbAu9sYAaYP38OW-1" vertex="1">
          <mxGeometry x="440" y="840" width="120" height="60" as="geometry" />
        </mxCell>
        <mxCell id="NZvUgJbAu9sYAaYP38OW-18" value="" style="endArrow=none;html=1;entryX=0.5;entryY=1;entryDx=0;entryDy=0;exitX=0.5;exitY=0;exitDx=0;exitDy=0;" parent="NZvUgJbAu9sYAaYP38OW-1" source="NZvUgJbAu9sYAaYP38OW-3" target="NZvUgJbAu9sYAaYP38OW-2" edge="1">
          <mxGeometry width="50" height="50" relative="1" as="geometry">
            <mxPoint x="530" y="530" as="sourcePoint" />
            <mxPoint x="580" y="480" as="targetPoint" />
          </mxGeometry>
        </mxCell>
        <mxCell id="NZvUgJbAu9sYAaYP38OW-19" value="" style="endArrow=none;html=1;entryX=0.5;entryY=1;entryDx=0;entryDy=0;exitX=0.5;exitY=0;exitDx=0;exitDy=0;" parent="NZvUgJbAu9sYAaYP38OW-1" source="NZvUgJbAu9sYAaYP38OW-4" target="NZvUgJbAu9sYAaYP38OW-2" edge="1">
          <mxGeometry width="50" height="50" relative="1" as="geometry">
            <mxPoint x="110" y="170" as="sourcePoint" />
            <mxPoint x="310" y="110" as="targetPoint" />
          </mxGeometry>
        </mxCell>
        <mxCell id="NZvUgJbAu9sYAaYP38OW-20" value="" style="endArrow=none;html=1;entryX=0.5;entryY=1;entryDx=0;entryDy=0;exitX=0.5;exitY=0;exitDx=0;exitDy=0;" parent="NZvUgJbAu9sYAaYP38OW-1" source="NZvUgJbAu9sYAaYP38OW-5" target="NZvUgJbAu9sYAaYP38OW-2" edge="1">
          <mxGeometry width="50" height="50" relative="1" as="geometry">
            <mxPoint x="310" y="170" as="sourcePoint" />
            <mxPoint x="310" y="110" as="targetPoint" />
          </mxGeometry>
        </mxCell>
        <mxCell id="NZvUgJbAu9sYAaYP38OW-21" value="" style="endArrow=classic;html=1;exitX=0.5;exitY=1;exitDx=0;exitDy=0;entryX=0.5;entryY=0;entryDx=0;entryDy=0;" parent="NZvUgJbAu9sYAaYP38OW-1" source="NZvUgJbAu9sYAaYP38OW-3" target="NZvUgJbAu9sYAaYP38OW-6" edge="1">
          <mxGeometry width="50" height="50" relative="1" as="geometry">
            <mxPoint x="150" y="310" as="sourcePoint" />
            <mxPoint x="200" y="260" as="targetPoint" />
          </mxGeometry>
        </mxCell>
        <mxCell id="NZvUgJbAu9sYAaYP38OW-22" value="" style="endArrow=classic;html=1;exitX=0.5;exitY=1;exitDx=0;exitDy=0;entryX=0.5;entryY=0;entryDx=0;entryDy=0;" parent="NZvUgJbAu9sYAaYP38OW-1" source="NZvUgJbAu9sYAaYP38OW-4" target="NZvUgJbAu9sYAaYP38OW-7" edge="1">
          <mxGeometry width="50" height="50" relative="1" as="geometry">
            <mxPoint x="110" y="230" as="sourcePoint" />
            <mxPoint x="110" y="330" as="targetPoint" />
          </mxGeometry>
        </mxCell>
        <mxCell id="NZvUgJbAu9sYAaYP38OW-23" value="" style="endArrow=classic;html=1;exitX=0.5;exitY=1;exitDx=0;exitDy=0;entryX=0.5;entryY=0;entryDx=0;entryDy=0;" parent="NZvUgJbAu9sYAaYP38OW-1" source="NZvUgJbAu9sYAaYP38OW-5" target="NZvUgJbAu9sYAaYP38OW-8" edge="1">
          <mxGeometry width="50" height="50" relative="1" as="geometry">
            <mxPoint x="310" y="230" as="sourcePoint" />
            <mxPoint x="310" y="330" as="targetPoint" />
          </mxGeometry>
        </mxCell>
        <mxCell id="NZvUgJbAu9sYAaYP38OW-24" value="" style="endArrow=none;html=1;entryX=0.5;entryY=1;entryDx=0;entryDy=0;exitX=0.5;exitY=0;exitDx=0;exitDy=0;" parent="NZvUgJbAu9sYAaYP38OW-1" source="NZvUgJbAu9sYAaYP38OW-9" target="NZvUgJbAu9sYAaYP38OW-6" edge="1">
          <mxGeometry width="50" height="50" relative="1" as="geometry">
            <mxPoint x="110" y="170" as="sourcePoint" />
            <mxPoint x="310" y="110" as="targetPoint" />
          </mxGeometry>
        </mxCell>
        <mxCell id="NZvUgJbAu9sYAaYP38OW-25" value="" style="endArrow=none;html=1;entryX=0.5;entryY=1;entryDx=0;entryDy=0;exitX=0.5;exitY=0;exitDx=0;exitDy=0;" parent="NZvUgJbAu9sYAaYP38OW-1" source="NZvUgJbAu9sYAaYP38OW-9" target="NZvUgJbAu9sYAaYP38OW-7" edge="1">
          <mxGeometry width="50" height="50" relative="1" as="geometry">
            <mxPoint x="310" y="450" as="sourcePoint" />
            <mxPoint x="110" y="390" as="targetPoint" />
          </mxGeometry>
        </mxCell>
        <mxCell id="NZvUgJbAu9sYAaYP38OW-26" value="" style="endArrow=none;html=1;entryX=0.5;entryY=1;entryDx=0;entryDy=0;exitX=0.5;exitY=0;exitDx=0;exitDy=0;" parent="NZvUgJbAu9sYAaYP38OW-1" source="NZvUgJbAu9sYAaYP38OW-9" target="NZvUgJbAu9sYAaYP38OW-8" edge="1">
          <mxGeometry width="50" height="50" relative="1" as="geometry">
            <mxPoint x="310" y="450" as="sourcePoint" />
            <mxPoint x="310" y="390" as="targetPoint" />
          </mxGeometry>
        </mxCell>
        <mxCell id="NZvUgJbAu9sYAaYP38OW-27" value="" style="endArrow=classic;html=1;exitX=0.5;exitY=1;exitDx=0;exitDy=0;entryX=0.5;entryY=0;entryDx=0;entryDy=0;" parent="NZvUgJbAu9sYAaYP38OW-1" source="NZvUgJbAu9sYAaYP38OW-9" target="NZvUgJbAu9sYAaYP38OW-10" edge="1">
          <mxGeometry width="50" height="50" relative="1" as="geometry">
            <mxPoint x="110" y="230" as="sourcePoint" />
            <mxPoint x="110" y="330" as="targetPoint" />
          </mxGeometry>
        </mxCell>
        <mxCell id="NZvUgJbAu9sYAaYP38OW-28" value="" style="endArrow=classic;html=1;exitX=0.5;exitY=1;exitDx=0;exitDy=0;entryX=0.5;entryY=0;entryDx=0;entryDy=0;" parent="NZvUgJbAu9sYAaYP38OW-1" source="NZvUgJbAu9sYAaYP38OW-9" target="NZvUgJbAu9sYAaYP38OW-11" edge="1">
          <mxGeometry width="50" height="50" relative="1" as="geometry">
            <mxPoint x="310" y="510" as="sourcePoint" />
            <mxPoint x="110" y="570" as="targetPoint" />
          </mxGeometry>
        </mxCell>
        <mxCell id="NZvUgJbAu9sYAaYP38OW-29" value="" style="endArrow=classic;html=1;exitX=0.5;exitY=1;exitDx=0;exitDy=0;entryX=0.5;entryY=0;entryDx=0;entryDy=0;" parent="NZvUgJbAu9sYAaYP38OW-1" source="NZvUgJbAu9sYAaYP38OW-11" target="NZvUgJbAu9sYAaYP38OW-12" edge="1">
          <mxGeometry width="50" height="50" relative="1" as="geometry">
            <mxPoint x="310" y="510" as="sourcePoint" />
            <mxPoint x="510" y="570" as="targetPoint" />
          </mxGeometry>
        </mxCell>
        <mxCell id="NZvUgJbAu9sYAaYP38OW-30" value="" style="endArrow=classic;html=1;exitX=0.5;exitY=1;exitDx=0;exitDy=0;entryX=0.5;entryY=0;entryDx=0;entryDy=0;" parent="NZvUgJbAu9sYAaYP38OW-1" source="NZvUgJbAu9sYAaYP38OW-11" target="NZvUgJbAu9sYAaYP38OW-13" edge="1">
          <mxGeometry width="50" height="50" relative="1" as="geometry">
            <mxPoint x="510" y="630" as="sourcePoint" />
            <mxPoint x="310" y="690" as="targetPoint" />
          </mxGeometry>
        </mxCell>
        <mxCell id="NZvUgJbAu9sYAaYP38OW-31" value="" style="endArrow=classic;html=1;exitX=0.5;exitY=1;exitDx=0;exitDy=0;entryX=0.5;entryY=0;entryDx=0;entryDy=0;" parent="NZvUgJbAu9sYAaYP38OW-1" source="NZvUgJbAu9sYAaYP38OW-12" target="NZvUgJbAu9sYAaYP38OW-16" edge="1">
          <mxGeometry width="50" height="50" relative="1" as="geometry">
            <mxPoint x="510" y="630" as="sourcePoint" />
            <mxPoint x="710" y="690" as="targetPoint" />
          </mxGeometry>
        </mxCell>
        <mxCell id="NZvUgJbAu9sYAaYP38OW-32" value="" style="endArrow=classic;html=1;exitX=0.5;exitY=1;exitDx=0;exitDy=0;entryX=0.5;entryY=0;entryDx=0;entryDy=0;" parent="NZvUgJbAu9sYAaYP38OW-1" source="NZvUgJbAu9sYAaYP38OW-12" target="NZvUgJbAu9sYAaYP38OW-17" edge="1">
          <mxGeometry width="50" height="50" relative="1" as="geometry">
            <mxPoint x="310" y="750" as="sourcePoint" />
            <mxPoint x="110" y="810" as="targetPoint" />
          </mxGeometry>
        </mxCell>
      </root>
    </mxGraphModel>
  </diagram>
</mxfile>
